<svg xmlns="http://www.w3.org/2000/svg" viewBox="0 0 3998.27 1469.27"><defs><style>.cls-1,.cls-3{opacity:0.55;}.cls-13,.cls-2,.cls-4{opacity:0.63;}.cls-11,.cls-3,.cls-4,.cls-5,.cls-6,.cls-8,.cls-9{fill:none;}.cls-3,.cls-4,.cls-5,.cls-8,.cls-9{stroke:#000;}.cls-10,.cls-11,.cls-3,.cls-4,.cls-5,.cls-6,.cls-8,.cls-9{stroke-miterlimit:10;}.cls-3,.cls-4{stroke-width:12px;}.cls-5,.cls-6{stroke-width:8px;}.cls-10,.cls-11,.cls-6{stroke:#1a1a1a;}.cls-12,.cls-7{fill:#1a1a1a;}.cls-8,.cls-9{stroke-width:6px;}.cls-9{stroke-linecap:round;}.cls-10,.cls-11{stroke-width:4px;}.cls-12{opacity:0.8;}</style></defs><title>forward-newup-right</title><g id="Layer_3" data-name="Layer 3"><path class="cls-1" d="M1089.18,1724.06" transform="translate(-501.53 -589.01)"/><path class="cls-2" d="M1510.56,1890.39" transform="translate(-501.53 -589.01)"/><line class="cls-3" x1="731.52" y1="250.57" x2="731.52" y2="1018.61"/><line class="cls-4" x1="784.74" y1="467.27" x2="784.74" y2="464.55"/><line class="cls-3" x1="737.35" y1="1004.53" x2="146.8" y2="1345.48"/><line class="cls-3" x1="716.41" y1="1009.03" x2="1330.66" y2="1363.67"/><line class="cls-5" x1="1713.99" y1="875.48" x2="1641.31" y2="325.16"/></g><g id="Layer_8" data-name="Layer 8"><line class="cls-6" x1="1713.55" y1="882.26" x2="2299.22" y2="114.69"/><circle class="cls-7" cx="1713.55" cy="882.26" r="36"/><polygon class="cls-7" points="2322.55 98.11 2229.43 132.02 2297.29 190.76 2322.55 98.11"/><text x="-501.53" y="-589.01"/><path d="M2111.33,1601.73h6.23l-2.66,16.34h.72c7.16-10.22,16-18.5,27-18.5a21,21,0,0,1,7.78,1.48l-2.88,7a14.06,14.06,0,0,0-6.77-1.44c-9.18,0-20.2,8.89-28,24.33l-11.34,57.2H2094Z" transform="translate(-501.53 -589.01)"/><path d="M2149.93,1656.13c0-32.33,22.06-56.56,45.6-56.56,17.72,0,29.2,12.53,29.2,34.2,0,32.33-22.07,56.55-45.61,56.55C2161.41,1690.32,2149.93,1677.8,2149.93,1656.13Zm67.35-21.35c0-18.72-8.1-28.69-22.39-28.69-18.54,0-37.51,22.46-37.51,49,0,18.72,8.1,28.69,22.39,28.69C2198.31,1683.81,2217.28,1661.34,2217.28,1634.78Z" transform="translate(-501.53 -589.01)"/><path class="cls-8" d="M2330,1521.68" transform="translate(-501.53 -589.01)"/><line class="cls-9" x1="1706.49" y1="979.52" x2="1643.49" y2="979.52"/><path class="cls-9" d="M2193.93,1549.8a26.64,26.64,0,0,0,5.46,10.84,36.93,36.93,0,0,0,8.51,7.57" transform="translate(-501.53 -589.01)"/><path class="cls-9" d="M2194.06,1586a19.51,19.51,0,0,1,4.46-9.83,36.59,36.59,0,0,1,8.52-7.58" transform="translate(-501.53 -589.01)"/><text x="-501.53" y="-589.01"/><path class="cls-10" d="M2142.49,618.32c0-10.64,6.27-18.85,15.23-23.52l1.85,3.47c-7.66,4.41-11.79,10.83-11.79,16.8l.62,7.53-3.7-6.05a4.87,4.87,0,0,1,3.67-1.76c2.91,0,5.15,1.62,5.15,4.76a5.53,5.53,0,0,1-5.35,5.82C2145,625.37,2142.49,622.8,2142.49,618.32Zm18.73,0c0-10.64,6.27-18.85,15.23-23.52l1.85,3.47c-7.66,4.41-11.79,10.83-11.79,16.8l.62,7.53-3.7-6.05a4.87,4.87,0,0,1,3.67-1.76c2.91,0,5.15,1.62,5.15,4.76a5.53,5.53,0,0,1-5.35,5.82C2163.68,625.37,2161.22,622.8,2161.22,618.32Z" transform="translate(-501.53 -589.01)"/><path class="cls-10" d="M2198.52,600.4h48.63l-1.12,5.15h-42.64L2196,643h36.09l-1.12,5.15H2195.1l-9,44.55h-6Z" transform="translate(-501.53 -589.01)"/><path class="cls-10" d="M2243.12,667.74c0-25.15,17.16-44,35.47-44,13.78,0,22.71,9.74,22.71,26.6,0,25.14-17.16,44-35.47,44C2252.05,694.34,2243.12,684.59,2243.12,667.74Zm52.39-16.61c0-14.56-6.3-22.31-17.42-22.31-14.42,0-29.18,17.47-29.18,38.13,0,14.56,6.3,22.32,17.42,22.32C2280.75,689.27,2295.51,671.8,2295.51,651.13Z" transform="translate(-501.53 -589.01)"/><path class="cls-10" d="M2326.64,625.43h4.85l-2.08,12.71h.56c5.58-7.95,12.44-14.39,21-14.39a16.35,16.35,0,0,1,6.05,1.15l-2.24,5.46a10.91,10.91,0,0,0-5.26-1.12c-7.14,0-15.71,6.91-21.79,18.92l-8.82,44.5h-5.77Z" transform="translate(-501.53 -589.01)"/><path class="cls-10" d="M2362.74,625.43h5.74l3.46,43.93c.48,6.23.91,12.22,1.37,18.23h.56c2.78-6,5.28-12,8.1-18.23l20.17-43.93h6.94l3.1,43.93c.26,6.23.73,12.22,1,18.23h.56c2.77-6,5.23-12,8.26-18.23l20.52-43.93h5.6l-31.64,67.23h-7.89l-2.78-41.92c-.47-6.44-.49-13.64-.95-19.94h-.56c-2.78,6.3-5.75,13.5-8.76,19.94l-19.15,41.92h-7.82Z" transform="translate(-501.53 -589.01)"/><path class="cls-10" d="M2454.82,670.09c0-25.85,17.92-46.34,36.49-46.34,7.89,0,13.8,4.37,17.33,11h.53l2.58-9.27h4.81l-13.49,67.23h-4.85l1.52-10.7h-.54c-6.91,7.2-15.54,12.38-24.78,12.38C2462.61,694.34,2454.82,685.85,2454.82,670.09Zm46,4.62,7-33.74c-5-8.68-10.34-12.13-16.64-12.13-15.93,0-30.55,20-30.55,40.21,0,13.58,5.8,20.19,15,20.19C2484.36,689.24,2492.93,684,2500.86,674.71Z" transform="translate(-501.53 -589.01)"/><path class="cls-10" d="M2541.54,625.43h4.84l-2.07,12.71h.56c5.57-7.95,12.43-14.39,21-14.39a16.38,16.38,0,0,1,6,1.15l-2.24,5.46a11,11,0,0,0-5.27-1.12c-7.14,0-15.71,6.91-21.78,18.92l-8.82,44.5h-5.77Z" transform="translate(-501.53 -589.01)"/><path class="cls-10" d="M2628.48,621.2l5.93-29.26h5.77l-20.36,100.72H2615l1.51-10.7H2616c-6.92,7.2-15.54,12.38-24.78,12.38-11.82,0-19.6-8.49-19.6-24.25,0-25.85,17.92-46.34,36.48-46.34,7.9,0,13.7,4.34,17.22,10.86h.54Zm-10.87,53.51,7-33.74c-5-8.68-10.33-12.13-16.63-12.13-15.93,0-30.55,20-30.55,40.21,0,13.58,5.8,20.19,15,20.19C2601.12,689.24,2609.66,684,2617.61,674.71Z" transform="translate(-501.53 -589.01)"/><path class="cls-10" d="M2655.16,621.56c7.66-4.41,11.79-10.83,11.79-16.8l-.62-7.53,3.7,6a4.87,4.87,0,0,1-3.67,1.76c-2.91,0-5.15-1.62-5.15-4.76a5.53,5.53,0,0,1,5.35-5.82c3.22,0,5.68,2.58,5.68,7.06,0,10.64-6.27,18.84-15.23,23.52Zm18.73,0c7.66-4.41,11.79-10.83,11.79-16.8l-.62-7.53,3.7,6a4.86,4.86,0,0,1-3.67,1.76c-2.91,0-5.15-1.62-5.15-4.76a5.53,5.53,0,0,1,5.35-5.82c3.22,0,5.68,2.58,5.68,7.06,0,10.64-6.27,18.84-15.23,23.52Z" transform="translate(-501.53 -589.01)"/><path class="cls-11" d="M2562.64,873c-9-4.91-26.42-16.16-38.34-37.52-22.51-40.36-6.07-82.3-3.6-88.3" transform="translate(-501.53 -589.01)"/><path class="cls-11" d="M2663.62,890.53" transform="translate(-501.53 -589.01)"/><path d="M2869.53,900.87a58.74,58.74,0,0,1,.79-8.64l11.7-56.41h-13.46l1.08-5.69,13.93-.75,6-24.66h6.3l-5,24.66h23.33l-1.4,6.44h-23.4l-11.7,56.84a39.51,39.51,0,0,0-.69,6.74c0,8,2.88,12.13,12.21,12.13,4.1,0,7.56-1.69,10.37-3.1l2.12,5.58c-3.42,1.8-8.39,4-13.93,4C2874.21,918,2869.53,910.12,2869.53,900.87Z" transform="translate(-501.53 -589.01)"/><path d="M2916.44,886.8c0-33.23,23-59.58,46.9-59.58,10.15,0,17.75,5.61,22.29,14.07h.68l3.31-11.91h6.19l-17.35,86.43h-6.23l1.95-13.75h-.69c-8.89,9.25-20,15.91-31.85,15.91C2926.44,918,2916.44,907.06,2916.44,886.8Zm59.18,5.94,9-43.38c-6.37-11.16-13.29-15.59-21.39-15.59-20.48,0-39.27,25.7-39.27,51.69,0,17.46,7.45,26,19.3,26C2954.41,911.42,2965.43,904.72,2975.62,892.74Z" transform="translate(-501.53 -589.01)"/><line class="cls-9" x1="2476.21" y1="207.16" x2="2413.21" y2="207.16"/><path class="cls-9" d="M2963.64,777.45a26.64,26.64,0,0,0,5.46,10.84,36.74,36.74,0,0,0,8.52,7.57" transform="translate(-501.53 -589.01)"/><path class="cls-9" d="M2963.77,813.66a19.66,19.66,0,0,1,4.46-9.84,37.15,37.15,0,0,1,8.52-7.57" transform="translate(-501.53 -589.01)"/><polygon class="cls-12" points="739.57 218.07 685.22 300.93 774.73 307.44 739.57 218.07"/><polygon class="cls-12" points="1350.96 1387.51 1302.47 1301.09 1255.45 1377.53 1350.96 1387.51"/><polygon class="cls-12" points="117.23 1362.58 215.36 1348.8 161.23 1277.21 117.23 1362.58"/><g class="cls-13"><path d="M1921.16,2012.64l-17.06-40.79h7.78l8.87,21.8c2.07,5.37,3.51,9.45,5.58,14.49h.72c4.16-4.71,8.35-9.45,12.51-14.49l18.83-21.8h8.24l-36.5,42.41,18.46,44h-7.81l-9.21-23.4c-2.11-5.37-4.52-11.09-7-16.45h-.72c-4.18,5.36-8.71,10.42-13.88,16.12l-20.59,23.73h-8.58Z" transform="translate(-501.53 -589.01)"/></g><g class="cls-13"><path d="M1184.88,759.15l2.8-5.93a12.87,12.87,0,0,0,6.19,1.47c10.26,0,19.28-9.47,26.41-24l3.74-7.49-14.54-87.78h7.4l8.42,54.23c1.37,8.23,2.7,17.73,3.67,25.73h.72c4.25-8.28,8.89-17.14,13.47-25.73l29.16-54.23H1280l-53.3,97.11c-7.5,14.31-17.44,28.67-33.28,28.67A21.33,21.33,0,0,1,1184.88,759.15Z" transform="translate(-501.53 -589.01)"/></g><g class="cls-13"><path d="M502.18,2047.57l64.58-75.46h-44.1l1.4-6.44h53.53l-.65,4.57-64.58,75.42h50.72l-1.4,6.44H501.53Z" transform="translate(-501.53 -589.01)"/></g><polygon class="cls-7" points="1636.12 271.38 1598.85 363.2 1687.93 352.25 1636.12 271.38"/><path class="cls-10" d="M1838.28,1038.68c0-10.64,6.27-18.84,15.23-23.52l1.85,3.47c-7.66,4.41-11.79,10.84-11.79,16.8l.62,7.53-3.7-6a4.91,4.91,0,0,1,3.67-1.76c2.91,0,5.15,1.62,5.15,4.76a5.53,5.53,0,0,1-5.35,5.82C1840.74,1045.73,1838.28,1043.16,1838.28,1038.68Zm18.73,0c0-10.64,6.27-18.84,15.23-23.52l1.85,3.47c-7.66,4.41-11.79,10.84-11.79,16.8l.62,7.53-3.7-6a4.91,4.91,0,0,1,3.67-1.76c2.91,0,5.15,1.62,5.15,4.76a5.53,5.53,0,0,1-5.34,5.82C1859.48,1045.73,1857,1043.16,1857,1038.68Z" transform="translate(-501.53 -589.01)"/><path class="cls-10" d="M1894,1020.76h6l-10.81,54a47,47,0,0,0-1.37,11.37c0,14.78,7.08,23.32,21.36,23.32,11.65,0,22.43-8.43,26.77-30.41l11.62-58.32h6L1941.68,1080c-5.09,25.53-18.37,34.66-33,34.66-16.88,0-26.82-9.86-26.82-27.47a62.93,62.93,0,0,1,1.2-11.87Z" transform="translate(-501.53 -589.01)"/><path class="cls-10" d="M1964.45,1119l-4.63,24.42h-5.76l19.54-97.67h4.85l-1.46,9.58h.53c7.17-5.85,15.49-11.26,24.72-11.26,11.82,0,19.61,8.61,19.61,24.25,0,25.84-17.92,46.34-36.49,46.34-7.84,0-13.89-4.56-17.7-10.84h-.27Zm11.67-57.2-7.28,36.14c4.93,8.43,10.28,11.62,16.61,11.62,15.93,0,30.54-20,30.54-40.2,0-13.46-5.79-20.19-15-20.19C1993.57,1049.21,1983.77,1054.41,1976.12,1061.84Z" transform="translate(-501.53 -589.01)"/><path class="cls-10" d="M2035,1041.93c7.65-4.41,11.78-10.84,11.78-16.8l-.61-7.53,3.69,6a4.85,4.85,0,0,1-3.66,1.77c-2.92,0-5.16-1.63-5.16-4.76a5.54,5.54,0,0,1,5.35-5.83c3.22,0,5.69,2.58,5.69,7.06,0,10.64-6.28,18.84-15.24,23.52Zm18.73,0c7.66-4.41,11.79-10.84,11.79-16.8l-.62-7.53,3.69,6a4.85,4.85,0,0,1-3.66,1.77c-2.91,0-5.15-1.63-5.15-4.76a5.54,5.54,0,0,1,5.34-5.83c3.22,0,5.69,2.58,5.69,7.06,0,10.64-6.27,18.84-15.23,23.52Z" transform="translate(-501.53 -589.01)"/><path class="cls-11" d="M2113.71,1192.05a59.64,59.64,0,0,1-31.54-8.34c-25.79-14.89-35.31-43-36.62-47" transform="translate(-501.53 -589.01)"/><line class="cls-6" x1="1717.4" y1="885.53" x2="2371.47" y2="1215.57"/><polygon class="cls-7" points="2420.23 1236.42 2369.08 1161.53 2317.53 1229.17 2420.23 1236.42"/><path class="cls-10" d="M2638.05,1510.05c0-10.64,6.27-18.84,15.23-23.52l1.85,3.47c-7.66,4.41-11.79,10.84-11.79,16.8l.61,7.53-3.69-6a4.87,4.87,0,0,1,3.67-1.77c2.91,0,5.15,1.63,5.15,4.76a5.54,5.54,0,0,1-5.35,5.83C2640.51,1517.11,2638.05,1514.53,2638.05,1510.05Zm18.73,0c0-10.64,6.27-18.84,15.23-23.52l1.85,3.47c-7.66,4.41-11.79,10.84-11.79,16.8l.61,7.53-3.69-6a4.87,4.87,0,0,1,3.67-1.77c2.91,0,5.15,1.63,5.15,4.76a5.54,5.54,0,0,1-5.35,5.83C2659.24,1517.11,2656.78,1514.53,2656.78,1510.05Z" transform="translate(-501.53 -589.01)"/><path class="cls-10" d="M2694.07,1492.13h23.16c16.68,0,27.16,5.94,27.16,20.3,0,18.65-15.4,29.76-35.45,29.76h-18.87l-8.43,42.2h-6Zm13.3,45c19.85,0,31-9.15,31-24.13,0-11.51-8-15.85-23.75-15.85H2699l-7.78,40Zm1.09,4.26,5.13-3,18.87,46h-6.64Z" transform="translate(-501.53 -589.01)"/><path class="cls-10" d="M2763.71,1517.16h5.76L2756,1584.39h-5.77Zm1.82-20.83a6.1,6.1,0,0,1,5.88-6.3,4.59,4.59,0,0,1,4.7,4.82,6,6,0,0,1-5.88,6A4.5,4.5,0,0,1,2765.53,1496.33Z" transform="translate(-501.53 -589.01)"/><path class="cls-10" d="M2775.88,1607.49l3.22-4.26c5.07,4.68,11.71,8.52,19.88,8.52,13.16,0,20.54-9.48,23.58-23.66l3.39-15.77c-7.65,7.42-15.68,12.29-25,12.29-11.51,0-19.43-8.34-19.43-23.85,0-24.92,17.84-45.28,35.64-45.28,7.77,0,13.78,4.37,17.31,11h.53l2.58-9.27h4.84l-14.7,73c-3.46,16.52-13.41,26.63-29.06,26.63C2789.07,1616.79,2781.76,1612.45,2775.88,1607.49Zm50.91-41.61,6.91-33.18c-5.08-8.68-10.3-12.12-16.6-12.12-15.18,0-29.71,19.85-29.71,39.14,0,13.22,5.55,19.8,14.73,19.8C2809.57,1579.52,2819.12,1574.34,2826.79,1565.88Z" transform="translate(-501.53 -589.01)"/><path class="cls-10" d="M2874.05,1483.67h5.77l-7.53,37.3-1.85,7h.56c8.62-7.31,16.16-12.52,24.3-12.52,11.48,0,16,6.67,16,16.44a36.26,36.26,0,0,1-1.12,9.07l-8.68,43.4h-5.77l8.63-42.62a39.92,39.92,0,0,0,1.12-8.68c0-8.2-3.5-12.43-11.93-12.43-5.94,0-13.83,4.29-23.91,14.14l-9.94,49.59H2854Z" transform="translate(-501.53 -589.01)"/><path class="cls-10" d="M2929,1572.77a45.71,45.71,0,0,1,.61-6.72l9.1-43.88h-10.47l.84-4.42,10.84-.59,4.64-19.18h4.9l-3.86,19.18h18.14l-1.09,5h-18.2l-9.1,44.22a30.66,30.66,0,0,0-.53,5.23c0,6.22,2.24,9.44,9.49,9.44a18,18,0,0,0,8.07-2.41l1.65,4.34a23.74,23.74,0,0,1-10.84,3.08C2932.66,1586.07,2929,1580,2929,1572.77Z" transform="translate(-501.53 -589.01)"/><path class="cls-10" d="M2976.56,1513.3c7.66-4.41,11.79-10.84,11.79-16.8l-.62-7.53,3.7,6a4.89,4.89,0,0,1-3.67,1.77c-2.91,0-5.15-1.63-5.15-4.76a5.54,5.54,0,0,1,5.34-5.83c3.22,0,5.69,2.58,5.69,7.06,0,10.64-6.27,18.84-15.23,23.52Zm18.73,0c7.66-4.41,11.79-10.84,11.79-16.8l-.62-7.53,3.7,6a4.89,4.89,0,0,1-3.67,1.77c-2.91,0-5.15-1.63-5.15-4.76a5.54,5.54,0,0,1,5.35-5.83c3.22,0,5.68,2.58,5.68,7.06,0,10.64-6.27,18.84-15.23,23.52Z" transform="translate(-501.53 -589.01)"/><path class="cls-11" d="M2830.89,1641.41a59.61,59.61,0,0,1-15.87,28.51c-20.8,21.31-50.35,23.6-54.59,23.87" transform="translate(-501.53 -589.01)"/></g></svg>