<svg xmlns="http://www.w3.org/2000/svg" viewBox="0 0 4273.66 3715.03"><defs><style>.cls-1{opacity:0.35;}.cls-2{fill:#e5e5e5;stroke-width:7px;}.cls-2,.cls-3,.cls-6,.cls-7{stroke:#000;}.cls-2,.cls-3,.cls-4,.cls-6,.cls-7{stroke-miterlimit:10;}.cls-3,.cls-4,.cls-6,.cls-7{fill:none;}.cls-3,.cls-4{stroke-width:8px;}.cls-4{stroke:#1a1a1a;}.cls-5{fill:#1a1a1a;}.cls-6{stroke-linecap:round;stroke-width:6px;}.cls-7{stroke-width:4px;}</style></defs><title>grid-center</title><g id="Layer_7" data-name="Layer 7"><g class="cls-1"><polygon class="cls-2" points="3421.71 667.13 3129.01 701.33 3129.01 983.9 3421.71 961.2 3421.71 667.13"/><polygon class="cls-2" points="3129.01 701.33 2858.36 732.96 2858.36 1004.88 3129.01 983.9 3129.01 701.33"/><polygon class="cls-2" points="2858.36 732.96 2607.37 762.29 2607.37 1024.34 2858.36 1004.88 2858.36 732.96"/><polygon class="cls-2" points="2607.37 762.29 2373.96 789.57 2373.96 1042.44 2607.37 1024.34 2607.37 762.29"/><polygon class="cls-2" points="2373.96 789.57 2156.35 815 2156.35 1059.31 2373.96 1042.44 2373.96 789.57"/><polygon class="cls-2" points="2156.35 815 1952.99 838.77 1952.99 1075.08 2156.35 1059.31 2156.35 815"/><polygon class="cls-2" points="3421.71 961.2 3129.01 983.9 3129.01 1266.46 3421.71 1255.28 3421.71 961.2"/><polygon class="cls-2" points="3129.01 983.9 2858.36 1004.88 2858.36 1276.8 3129.01 1266.46 3129.01 983.9"/><polygon class="cls-2" points="2858.36 1004.88 2607.37 1024.34 2607.37 1286.39 2858.36 1276.8 2858.36 1004.88"/><polygon class="cls-2" points="2607.37 1024.34 2373.96 1042.44 2373.96 1295.31 2607.37 1286.39 2607.37 1024.34"/><polygon class="cls-2" points="2373.96 1042.44 2156.35 1059.31 2156.35 1303.62 2373.96 1295.31 2373.96 1042.44"/><polygon class="cls-2" points="2156.35 1059.31 1952.99 1075.08 1952.99 1311.39 2156.35 1303.62 2156.35 1059.31"/><polygon class="cls-2" points="3421.71 1255.28 3129.01 1266.46 3129.01 1549.03 3421.71 1549.35 3421.71 1255.28"/><polygon class="cls-2" points="3129.01 1266.46 2858.36 1276.8 2858.36 1548.72 3129.01 1549.03 3129.01 1266.46"/><polygon class="cls-2" points="2858.36 1276.8 2607.37 1286.39 2607.37 1548.44 2858.36 1548.72 2858.36 1276.8"/><polygon class="cls-2" points="2607.37 1286.39 2373.96 1295.31 2373.96 1548.18 2607.37 1548.44 2607.37 1286.39"/><polygon class="cls-2" points="2373.96 1295.31 2156.35 1303.62 2156.35 1547.93 2373.96 1548.18 2373.96 1295.31"/><polygon class="cls-2" points="2156.35 1303.62 1952.99 1311.39 1952.99 1547.7 2156.35 1547.93 2156.35 1303.62"/><polygon class="cls-2" points="3421.71 1549.35 3129.01 1549.03 3129.01 1831.59 3421.71 1843.43 3421.71 1549.35"/><polygon class="cls-2" points="3129.01 1549.03 2858.36 1548.72 2858.36 1820.64 3129.01 1831.59 3129.01 1549.03"/><polygon class="cls-2" points="2858.36 1548.72 2607.37 1548.44 2607.37 1810.49 2858.36 1820.64 2858.36 1548.72"/><polygon class="cls-2" points="2607.37 1548.44 2373.96 1548.18 2373.96 1801.04 2607.37 1810.49 2607.37 1548.44"/><polygon class="cls-2" points="2373.96 1548.18 2156.35 1547.93 2156.35 1792.24 2373.96 1801.04 2373.96 1548.18"/><polygon class="cls-2" points="2156.35 1547.93 1952.99 1547.7 1952.99 1784.01 2156.35 1792.24 2156.35 1547.93"/><polygon class="cls-2" points="3421.71 1843.43 3129.01 1831.59 3129.01 2114.15 3421.71 2137.5 3421.71 1843.43"/><polygon class="cls-2" points="3129.01 1831.59 2858.36 1820.64 2858.36 2092.56 3129.01 2114.15 3129.01 1831.59"/><polygon class="cls-2" points="2858.36 1820.64 2607.37 1810.49 2607.37 2072.53 2858.36 2092.56 2858.36 1820.64"/><polygon class="cls-2" points="2607.37 1810.49 2373.96 1801.04 2373.96 2053.91 2607.37 2072.53 2607.37 1810.49"/><polygon class="cls-2" points="2373.96 1801.04 2156.35 1792.24 2156.35 2036.55 2373.96 2053.91 2373.96 1801.04"/><polygon class="cls-2" points="2156.35 1792.24 1952.99 1784.01 1952.99 2020.33 2156.35 2036.55 2156.35 1792.24"/><polygon class="cls-2" points="3421.71 2137.5 3129.01 2114.15 3129.01 2396.72 3421.71 2431.58 3421.71 2137.5"/><polygon class="cls-2" points="3129.01 2114.15 2858.36 2092.56 2858.36 2364.48 3129.01 2396.72 3129.01 2114.15"/><polygon class="cls-2" points="2858.36 2092.56 2607.37 2072.53 2607.37 2334.58 2858.36 2364.48 2858.36 2092.56"/><polygon class="cls-2" points="2607.37 2072.53 2373.96 2053.91 2373.96 2306.78 2607.37 2334.58 2607.37 2072.53"/><polygon class="cls-2" points="2373.96 2053.91 2156.35 2036.55 2156.35 2280.86 2373.96 2306.78 2373.96 2053.91"/><polygon class="cls-2" points="2156.35 2036.55 1952.99 2020.33 1952.99 2256.64 2156.35 2280.86 2156.35 2036.55"/></g><polygon class="cls-3" points="3421.71 667.13 3421.71 2431.58 1952.99 2256.64 1952.99 838.77 3421.71 667.13"/><path d="M2362.25,376.26h8.28V494.87h-8.28Z"/><path d="M2404.55,408.44h6.73l.87,13.41h.39c7.85-8.8,17.68-15.57,27.33-15.57,13.86,0,20.79,7,23.86,17.64,9.81-10.8,19.37-17.64,29.34-17.64,17.21,0,25.85,10.83,25.85,33.15v55.44h-8V440.48c0-18.33-6.11-27-19.36-27-8.14,0-16.35,5.4-25.89,16.24v65.19h-7.95V440.48c0-18.33-6.12-27-19.37-27-7.81,0-16.34,5.4-25.88,16.24v65.19h-8Z"/><path d="M2544.52,473.36c0-19.2,17.32-28.35,55.76-32.59.25-13.29-3.38-27.51-20.37-27.51-11.67,0-21.75,5.76-27.54,10.15l-3.67-5.9c6.12-4.32,18.1-11.23,32.14-11.23,20.49,0,27.4,14.87,27.4,33.37v55.22h-6.73l-.87-11.23h-.39c-8.82,7.13-19.34,13.39-30.67,13.39C2555.9,497,2544.52,489.58,2544.52,473.36Zm55.76,2.86V446.81c-35.49,4.11-47.63,12.35-47.63,26.14,0,12.4,8.39,17.17,18.33,17.17S2589.59,485.33,2600.28,476.22Z"/><path d="M2631.78,512.55c0-7.55,5-15.23,12.93-20.85V491a15.54,15.54,0,0,1-7.63-13.86c0-7.74,5.58-13.24,9.43-15.94v-.72a31.75,31.75,0,0,1-11-23.69c0-17.78,13.54-30.49,30.42-30.49a30.79,30.79,0,0,1,11.49,2.16h29.26v6.76h-20.08a28.47,28.47,0,0,1,9.54,21.68c0,17.67-13.29,30.52-30.21,30.52a29.51,29.51,0,0,1-14.29-3.69c-3.74,3.08-7,6.75-7,12.51,0,6.23,3.6,11.23,16.49,11.23h18.52c19.42,0,28.49,6.2,28.49,19.84,0,14.9-15.94,29.19-40.85,29.19C2645.5,536.48,2631.78,527.12,2631.78,512.55Zm68.26-4.4c0-9.54-6.91-13.17-20-13.17h-18.52a54.94,54.94,0,0,1-10.69-1.41c-8,5.4-11.34,12.06-11.34,18.15,0,10.94,10.44,18.32,28.65,18.32C2687.62,530,2700,519,2700,508.15Zm-11.7-71.38c0-14.6-10.12-23.9-22.36-23.9s-22.35,9.14-22.35,23.9c0,14.47,10.44,24.26,22.35,24.26S2688.34,451.24,2688.34,436.77Z"/><path d="M2717.5,451.82c0-28.19,18.33-45.54,37.69-45.54,20.49,0,33.09,14.58,33.09,40a38.17,38.17,0,0,1-.45,6.48h-62.16c.29,21.82,13.07,37.41,32.55,37.41a39,39,0,0,0,23.22-7.67l3.27,6c-6.8,4.25-14.58,8.5-27.25,8.5C2735.39,497,2717.5,480.07,2717.5,451.82Zm63.29-5.62c0-22.07-10-33.05-25.52-33.05-14.62,0-27.83,12.39-29.63,33.05Z"/><path d="M2840.4,512.55c0-7.55,5-15.23,12.93-20.85V491a15.54,15.54,0,0,1-7.63-13.86c0-7.74,5.58-13.24,9.43-15.94v-.72a31.75,31.75,0,0,1-11-23.69c0-17.78,13.54-30.49,30.42-30.49a30.79,30.79,0,0,1,11.49,2.16h29.26v6.76h-20.09a28.47,28.47,0,0,1,9.54,21.68c0,17.67-13.28,30.52-30.2,30.52a29.51,29.51,0,0,1-14.29-3.69c-3.74,3.08-7,6.75-7,12.51,0,6.23,3.6,11.23,16.49,11.23h18.52c19.42,0,28.49,6.2,28.49,19.84,0,14.9-15.95,29.19-40.86,29.19C2854.12,536.48,2840.4,527.12,2840.4,512.55Zm68.26-4.4c0-9.54-6.91-13.17-20-13.17h-18.52a54.94,54.94,0,0,1-10.69-1.41c-8,5.4-11.34,12.06-11.34,18.15,0,10.94,10.44,18.32,28.65,18.32C2896.24,530,2908.66,519,2908.66,508.15ZM2897,436.77c0-14.6-10.12-23.9-22.36-23.9s-22.35,9.14-22.35,23.9c0,14.47,10.44,24.26,22.35,24.26S2897,451.24,2897,436.77Z"/><path d="M2935.37,408.44h6.73l.87,16.13h.39c5.85-10.62,14.31-18.29,24.59-18.29a18,18,0,0,1,8.57,1.8l-1.8,7.2a19.26,19.26,0,0,0-7.81-1.44c-7.78,0-17,5.9-23.58,22.24v58.79h-8Z"/><path d="M2989.33,380.5c0-4.46,3.32-7.05,7.24-7.05s7.23,2.59,7.23,7.05a7.24,7.24,0,0,1-14.47,0Zm3.1,27.94h8v86.43h-8Z"/><path d="M3026.45,451.82c0-27.9,17.71-45.54,38.34-45.54,10.36,0,17.42,3.92,26.06,10.62l-.43-15.88V365.38h7.95V494.87h-6.73l-.86-11.2h-.4c-7.09,7.1-16.7,13.36-28.19,13.36C3040.52,497,3026.45,481,3026.45,451.82Zm64,23.9V424.46c-9.11-8.1-16.71-11.13-25.2-11.13-17.17,0-30.42,16.78-30.42,38.45,0,23,10.22,38.2,28.55,38.2C3072.89,490,3081.35,485,3090.42,475.72Z"/></g><g id="Layer_8" data-name="Layer 8"><line class="cls-4" x1="539.99" y1="1891.13" x2="2607.37" y2="1548.44"/><circle class="cls-5" cx="539.99" cy="1891.13" r="36"/><polygon class="cls-5" points="2537.37 1508.04 2557.45 1605.08 2625.39 1546.44 2537.37 1508.04"/><text/><path d="M676.69,2051.32h6.23l-2.67,16.35H681c7.17-10.23,16-18.51,27-18.51a21,21,0,0,1,7.77,1.48l-2.88,7a14.1,14.1,0,0,0-6.76-1.44c-9.18,0-20.2,8.89-28,24.33l-11.34,57.21h-7.42Z"/><path d="M715.28,2105.72c0-32.33,22.07-56.56,45.61-56.56,17.71,0,29.2,12.53,29.2,34.2,0,32.33-22.07,56.56-45.61,56.56C726.76,2139.92,715.28,2127.39,715.28,2105.72Zm67.35-21.35c0-18.72-8.1-28.69-22.39-28.69-18.54,0-37.51,22.46-37.51,49,0,18.72,8.1,28.69,22.39,28.69C763.66,2133.4,782.63,2110.94,782.63,2084.37Z"/><line class="cls-6" x1="773.38" y1="2018.12" x2="710.38" y2="2018.12"/><path class="cls-6" d="M759.28,1999.4a26.75,26.75,0,0,0,5.46,10.83,37.06,37.06,0,0,0,8.52,7.58"/><path class="cls-6" d="M759.42,2035.6a19.54,19.54,0,0,1,4.46-9.83,37.26,37.26,0,0,1,8.51-7.58"/><path d="M2682.15,1712.49a58.49,58.49,0,0,1,.79-8.64l11.7-56.41h-13.46l1.08-5.69,13.93-.76,6-24.66h6.3l-5,24.66h23.33l-1.4,6.45H2702l-11.7,56.84a39.42,39.42,0,0,0-.68,6.73c0,8,2.88,12.13,12.2,12.13,4.1,0,7.56-1.69,10.37-3.09l2.12,5.58c-3.42,1.8-8.39,4-13.93,4C2686.83,1729.59,2682.15,1721.74,2682.15,1712.49Z"/><path d="M2729.06,1698.41c0-33.23,23-59.58,46.9-59.58,10.16,0,17.75,5.62,22.29,14.08h.68l3.31-11.92h6.19l-17.35,86.44h-6.22l1.94-13.76h-.68c-8.9,9.26-20,15.92-31.86,15.92C2739.07,1729.59,2729.06,1718.68,2729.06,1698.41Zm59.18,5.94,9-43.38c-6.37-11.16-13.28-15.59-21.38-15.59-20.49,0-39.28,25.71-39.28,51.7,0,17.46,7.45,26,19.3,26C2767,1723,2778.05,1716.34,2788.24,1704.35Z"/><line class="cls-6" x1="2790.36" y1="1607.79" x2="2727.36" y2="1607.79"/><path class="cls-6" d="M2776.26,1589.06a26.59,26.59,0,0,0,5.46,10.84,37.06,37.06,0,0,0,8.52,7.58"/><path class="cls-6" d="M2776.4,1625.27a19.5,19.5,0,0,1,4.45-9.83,37.48,37.48,0,0,1,8.52-7.58"/><path class="cls-7" d="M1283,2091s58.58,252.27,251.46,445.15c294.24,294.24,441.62,241.39,441.62,241.39"/><path d="M2100.85,2856a58.74,58.74,0,0,1,.79-8.64l11.7-56.41h-13.46l1.07-5.69,13.94-.75,6-24.66h6.3l-5,24.66h23.33l-1.4,6.44h-23.4l-11.7,56.84a39.62,39.62,0,0,0-.69,6.74c0,8,2.88,12.13,12.21,12.13,4.1,0,7.56-1.69,10.36-3.1l2.13,5.58c-3.42,1.8-8.39,4-13.93,4C2105.53,2873.13,2100.85,2865.28,2100.85,2856Z"/><path d="M2147.76,2842c0-33.23,23-59.58,46.9-59.58,10.15,0,17.75,5.61,22.28,14.07h.69l3.31-11.91h6.19L2209.78,2871h-6.23l1.95-13.75h-.69c-8.89,9.25-20,15.91-31.86,15.91C2157.76,2873.13,2147.76,2862.22,2147.76,2842Zm59.18,5.94,9-43.38c-6.37-11.16-13.29-15.59-21.39-15.59-20.48,0-39.27,25.7-39.27,51.69,0,17.46,7.45,26,19.29,26C2185.73,2866.58,2196.75,2859.88,2206.94,2847.9Z"/><line class="cls-6" x1="2209.05" y1="2751.34" x2="2146.05" y2="2751.34"/><path class="cls-6" d="M2195,2732.61a26.64,26.64,0,0,0,5.46,10.84,36.74,36.74,0,0,0,8.52,7.57"/><path class="cls-6" d="M2195.09,2768.82a19.66,19.66,0,0,1,4.46-9.84,36.74,36.74,0,0,1,8.52-7.57"/><path d="M2452.83,2783.41h6.23l-2.66,16.34h.72c7.16-10.22,16-18.5,27-18.5a21,21,0,0,1,7.78,1.47l-2.88,7a14.18,14.18,0,0,0-6.77-1.44c-9.18,0-20.2,8.89-28,24.34l-11.34,57.2h-7.41Z"/><path d="M2491.42,2837.8c0-32.33,22.07-56.55,45.61-56.55,17.72,0,29.2,12.52,29.2,34.2,0,32.32-22.07,56.55-45.61,56.55C2502.91,2872,2491.42,2859.47,2491.42,2837.8Zm67.36-21.35c0-18.72-8.1-28.69-22.39-28.69-18.54,0-37.51,22.47-37.51,49,0,18.72,8.09,28.69,22.39,28.69C2539.81,2865.48,2558.78,2843,2558.78,2816.45Z"/><line class="cls-6" x1="2549.52" y1="2750.2" x2="2486.52" y2="2750.2"/><path class="cls-6" d="M2535.43,2731.48a26.62,26.62,0,0,0,5.46,10.83,37.26,37.26,0,0,0,8.51,7.58"/><path class="cls-6" d="M2535.56,2767.69a19.53,19.53,0,0,1,4.46-9.84,37.06,37.06,0,0,1,8.52-7.58"/><path d="M2299.79,2807.61h70.91l-2.64,6.55h-70.91Z"/></g></svg>