<svg xmlns="http://www.w3.org/2000/svg" viewBox="0 0 5469.07 3952"><defs><style>.cls-1{fill:#1a1a1a;stroke-width:4px;}.cls-1,.cls-10,.cls-11,.cls-2,.cls-3,.cls-6,.cls-7{stroke:#1a1a1a;}.cls-1,.cls-10,.cls-11,.cls-12,.cls-2,.cls-3,.cls-5,.cls-6,.cls-7,.cls-8,.cls-9{stroke-miterlimit:10;}.cls-10,.cls-11,.cls-12,.cls-2,.cls-5,.cls-6{fill:none;}.cls-2,.cls-3,.cls-5,.cls-6,.cls-7{stroke-width:8px;}.cls-4,.cls-7{opacity:0.5;}.cls-12,.cls-5,.cls-8,.cls-9{stroke:#000;}.cls-5{stroke-dasharray:24.19 24.19;}.cls-6{stroke-dasharray:29.61 29.61;}.cls-9{stroke-width:3px;}.cls-10{stroke-dasharray:30.04 30.04;}.cls-11{stroke-dasharray:29.99 29.99;}.cls-12{stroke-linecap:round;stroke-width:6px;}</style></defs><title>min-dist-step</title><g id="Layer_8" data-name="Layer 8"><text x="969.27" y="328.69"/><text x="969.27" y="328.69"/><circle class="cls-1" cx="1995.9" cy="1978.1" r="32.93"/><line class="cls-2" x1="1353" y1="2108" x2="1353" y2="2113"/><line class="cls-2" x1="2007.75" y1="1975.97" x2="2309.66" y2="1861.12"/><polygon class="cls-3" points="2260.14 1864.24 2317.11 1859.41 2274.8 1894.52 2260.14 1864.24"/><circle class="cls-2" cx="3272.5" cy="891.5" r="139.5"/><rect class="cls-2" x="3943" y="2228" width="306" height="306"/><circle class="cls-2" cx="1715.5" cy="2313.5" r="76.5"/><g class="cls-4"><circle class="cls-5" cx="1985.5" cy="1980.5" r="346.5"/></g><g class="cls-4"><line class="cls-2" x1="2332" y1="1850" x2="2346.05" y2="1844.76"/><line class="cls-6" x1="2373.8" y1="1834.41" x2="3969.07" y2="1239.42"/><line class="cls-2" x1="3982.95" y1="1234.24" x2="3997" y2="1229"/></g><polygon class="cls-7" points="3942.75 1212.46 4062.49 1202.31 3973.55 1276.1 3942.75 1212.46"/><path class="cls-8" d="M1084.85,1724.08h4.84l-2.07,12.71h.56c5.57-8,12.43-14.39,21-14.39a16.38,16.38,0,0,1,6,1.15L1113,1729a11,11,0,0,0-5.27-1.12c-7.14,0-15.7,6.91-21.78,18.93l-8.82,44.49h-5.77Z" transform="translate(969.27 328.69)"/><path class="cls-8" d="M1114.87,1766.39c0-25.14,17.16-44,35.47-44,13.78,0,22.71,9.74,22.71,26.6,0,25.14-17.17,44-35.48,44C1123.8,1793,1114.87,1783.25,1114.87,1766.39Zm52.38-16.6c0-14.57-6.3-22.32-17.41-22.32-14.42,0-29.18,17.47-29.18,38.13,0,14.57,6.3,22.32,17.42,22.32C1152.5,1787.92,1167.25,1770.45,1167.25,1749.79Z" transform="translate(969.27 328.69)"/><text x="969.27" y="328.69"/><text x="969.27" y="328.69"/><text x="969.27" y="328.69"/><text x="969.27" y="328.69"/><path class="cls-9" d="M2128.85,1346.08h4.84l-2.07,12.71h.56c5.57-8,12.43-14.39,21-14.39a16.38,16.38,0,0,1,6.05,1.15L2157,1351a11,11,0,0,0-5.27-1.12c-7.14,0-15.7,6.91-21.78,18.93l-8.82,44.49h-5.77Z" transform="translate(969.27 328.69)"/><path class="cls-9" d="M2215.79,1341.85l5.94-29.26h5.76l-20.35,100.72h-4.85l1.52-10.7h-.54c-6.91,7.2-15.54,12.38-24.78,12.38-11.81,0-19.6-8.49-19.6-24.25,0-25.84,17.92-46.34,36.49-46.34,7.89,0,13.69,4.34,17.22,10.86h.53Zm-10.86,53.51,7-33.74c-5-8.68-10.34-12.12-16.64-12.12-15.93,0-30.55,20-30.55,40.21,0,13.58,5.8,20.18,15,20.18C2188.43,1409.89,2197,1404.69,2204.93,1395.36Z" transform="translate(969.27 328.69)"/><text x="969.27" y="328.69"/><circle class="cls-10" cx="1999" cy="1980.5" r="1530"/><circle class="cls-11" cx="1976" cy="1976" r="1975.5"/><line class="cls-12" x1="2134" y1="2021" x2="2071" y2="2021"/><path class="cls-12" d="M1150.63,1673.59a26.64,26.64,0,0,0,5.46,10.83,36.88,36.88,0,0,0,8.52,7.58" transform="translate(969.27 328.69)"/><path class="cls-12" d="M1150.77,1709.79a19.5,19.5,0,0,1,4.46-9.83,37,37,0,0,1,8.51-7.58" transform="translate(969.27 328.69)"/><line class="cls-12" x1="3178" y1="1634" x2="3115" y2="1634"/><path class="cls-12" d="M2194.63,1286.59a26.64,26.64,0,0,0,5.46,10.83,36.88,36.88,0,0,0,8.52,7.58" transform="translate(969.27 328.69)"/><path class="cls-12" d="M2194.77,1322.79a19.5,19.5,0,0,1,4.46-9.83,37,37,0,0,1,8.51-7.58" transform="translate(969.27 328.69)"/></g></svg>