<svg xmlns="http://www.w3.org/2000/svg" viewBox="0 0 3940 2635"><defs><style>.cls-1{fill:#fff;}.cls-1,.cls-3,.cls-4,.cls-5,.cls-6{stroke:#000;}.cls-1,.cls-10,.cls-3,.cls-4,.cls-5,.cls-6,.cls-7,.cls-8,.cls-9{stroke-miterlimit:10;}.cls-1,.cls-3,.cls-5,.cls-6{stroke-width:7px;}.cls-2{opacity:0.35;}.cls-3{fill:#e5e5e5;}.cls-10,.cls-4,.cls-7{fill:none;}.cls-4{stroke-width:8px;}.cls-5,.cls-6{fill:#a5d2da;}.cls-6{opacity:0.63;}.cls-7{stroke:#c89190;}.cls-10,.cls-7,.cls-8,.cls-9{stroke-width:14px;}.cls-8{fill:#fd1a16;}.cls-10,.cls-8,.cls-9{stroke:#c8110d;}.cls-9{fill:#c8120e;}</style></defs><title>raymarch</title><g id="camera"><polygon class="cls-1" points="110 1074.49 3.5 1142.95 3.5 1485.27 110 1553.74 642.5 1485.27 642.5 1142.95 110 1074.49"/><path class="cls-1" d="M881.31,1796.74c0,56-41.71,102.1-93.62,102.85-52.44.77-95.33-44.87-95.33-101.94s42.89-103.13,95.33-102.87C839.6,1695,881.31,1740.69,881.31,1796.74Z" transform="translate(-419.5 -482.51)"/><path class="cls-1" d="M934.2,1797.11c0,56.45-42.3,102.84-95,103.62-53.2.79-96.73-45.18-96.73-102.69s43.53-103.89,96.73-103.62C891.9,1694.68,934.2,1740.66,934.2,1797.11Z" transform="translate(-419.5 -482.51)"/><line class="cls-1" x1="110" y1="1074.49" x2="110" y2="1553.74"/></g><g id="GRID"><g class="cls-2"><polygon class="cls-3" points="1001.44 94.7 1422.09 143.86 1422.09 549.95 1001.44 517.33 1001.44 94.7"/><polygon class="cls-3" points="1422.09 143.86 1811.05 189.31 1811.05 580.1 1422.09 549.95 1422.09 143.86"/><polygon class="cls-3" points="1811.05 189.31 2171.77 231.47 2171.77 608.07 1811.05 580.1 1811.05 189.31"/><polygon class="cls-3" points="2171.77 231.47 2507.22 270.67 2507.22 634.08 2171.77 608.07 2171.77 231.47"/><polygon class="cls-3" points="2507.22 270.67 2819.96 307.22 2819.96 658.33 2507.22 634.08 2507.22 270.67"/><polygon class="cls-3" points="2819.96 307.22 3112.22 341.37 3112.22 680.99 2819.96 658.33 2819.96 307.22"/><polygon class="cls-3" points="1001.44 517.33 1422.09 549.95 1422.09 956.03 1001.44 939.96 1001.44 517.33"/><polygon class="cls-3" points="1422.09 549.95 1811.05 580.1 1811.05 970.89 1422.09 956.03 1422.09 549.95"/><polygon class="cls-3" points="1811.05 580.1 2171.77 608.07 2171.77 984.68 1811.05 970.89 1811.05 580.1"/><polygon class="cls-3" points="2171.77 608.07 2507.22 634.08 2507.22 997.49 2171.77 984.68 2171.77 608.07"/><polygon class="cls-3" points="2507.22 634.08 2819.96 658.33 2819.96 1009.44 2507.22 997.49 2507.22 634.08"/><polygon class="cls-3" points="2819.96 658.33 3112.22 680.99 3112.22 1020.61 2819.96 1009.44 2819.96 658.33"/><polygon class="cls-3" points="1001.44 939.96 1422.09 956.03 1422.09 1362.13 1001.44 1362.6 1001.44 939.96"/><polygon class="cls-3" points="1422.09 956.03 1811.05 970.89 1811.05 1361.69 1422.09 1362.13 1422.09 956.03"/><polygon class="cls-3" points="1811.05 970.89 2171.77 984.68 2171.77 1361.28 1811.05 1361.69 1811.05 970.89"/><polygon class="cls-3" points="2171.77 984.68 2507.22 997.49 2507.22 1360.9 2171.77 1361.28 2171.77 984.68"/><polygon class="cls-3" points="2507.22 997.49 2819.96 1009.44 2819.96 1360.55 2507.22 1360.9 2507.22 997.49"/><polygon class="cls-3" points="2819.96 1009.44 3112.22 1020.61 3112.22 1360.22 2819.96 1360.55 2819.96 1009.44"/><polygon class="cls-3" points="1001.44 1362.6 1422.09 1362.13 1422.09 1768.21 1001.44 1785.23 1001.44 1362.6"/><polygon class="cls-3" points="1422.09 1362.13 1811.05 1361.69 1811.05 1752.48 1422.09 1768.21 1422.09 1362.13"/><polygon class="cls-3" points="1811.05 1361.69 2171.77 1361.28 2171.77 1737.89 1811.05 1752.48 1811.05 1361.69"/><polygon class="cls-3" points="2171.77 1361.28 2507.22 1360.9 2507.22 1724.32 2171.77 1737.89 2171.77 1361.28"/><polygon class="cls-3" points="2507.22 1360.9 2819.96 1360.55 2819.96 1711.67 2507.22 1724.32 2507.22 1360.9"/><polygon class="cls-3" points="2819.96 1360.55 3112.22 1360.22 3112.22 1699.84 2819.96 1711.67 2819.96 1360.55"/><polygon class="cls-3" points="1001.44 1785.23 1422.09 1768.21 1422.09 2174.3 1001.44 2207.86 1001.44 1785.23"/><polygon class="cls-3" points="1422.09 1768.21 1811.05 1752.48 1811.05 2143.27 1422.09 2174.3 1422.09 1768.21"/><polygon class="cls-3" points="1811.05 1752.48 2171.77 1737.89 2171.77 2114.49 1811.05 2143.27 1811.05 1752.48"/><polygon class="cls-3" points="2171.77 1737.89 2507.22 1724.32 2507.22 2087.73 2171.77 2114.49 2171.77 1737.89"/><polygon class="cls-3" points="2507.22 1724.32 2819.96 1711.67 2819.96 2062.78 2507.22 2087.73 2507.22 1724.32"/><polygon class="cls-3" points="2819.96 1711.67 3112.22 1699.84 3112.22 2039.46 2819.96 2062.78 2819.96 1711.67"/><polygon class="cls-3" points="1001.44 2207.86 1422.09 2174.3 1422.09 2580.39 1001.44 2630.5 1001.44 2207.86"/><polygon class="cls-3" points="1422.09 2174.3 1811.05 2143.27 1811.05 2534.06 1422.09 2580.39 1422.09 2174.3"/><polygon class="cls-3" points="1811.05 2143.27 2171.77 2114.49 2171.77 2491.1 1811.05 2534.06 1811.05 2143.27"/><polygon class="cls-3" points="2171.77 2114.49 2507.22 2087.73 2507.22 2451.14 2171.77 2491.1 2171.77 2114.49"/><polygon class="cls-3" points="2507.22 2087.73 2819.96 2062.78 2819.96 2413.89 2507.22 2451.14 2507.22 2087.73"/><polygon class="cls-3" points="2819.96 2062.78 3112.22 2039.46 3112.22 2379.08 2819.96 2413.89 2819.96 2062.78"/></g><polygon class="cls-4" points="1001.44 94.7 1001.44 2630.5 3112.22 2379.08 3112.22 341.37 1001.44 94.7"/></g><g id="cube"><polygon class="cls-5" points="3269.44 889.19 2669.09 969.32 2669.09 1785.49 3269.44 1956.49 3936.5 1836.49 3936.5 969.32 3269.44 889.19"/><line class="cls-1" x1="3269.44" y1="889.19" x2="3269.44" y2="1956.49"/><polygon class="cls-6" points="2441.67 1631.25 1915.19 1655.72 1915.19 1059.36 2441.67 1067.23 2441.67 1631.25"/></g><g id="ray_part_2" data-name="ray part 2"><line class="cls-7" x1="993.5" y1="1281.49" x2="2046.5" y2="1200.49"/><line class="cls-7" x1="984.5" y1="1389.49" x2="2046.5" y2="1506.49"/></g><g id="ray_top" data-name="ray top"><line class="cls-8" x1="1983.5" y1="1209.49" x2="2613.5" y2="1155.49"/><polygon class="cls-9" points="2595.5 1137.49 2604.5 1182.49 2640.5 1155.49 2595.5 1137.49"/><line class="cls-8" x1="2622.5" y1="1569.49" x2="1983.5" y2="1497.49"/><polygon class="cls-9" points="2604.5 1533.49 2595.5 1587.49 2640.5 1569.49 2604.5 1533.49"/><polyline class="cls-10" points="993.5 1389.49 426.5 1317.49 993.5 1281.49"/><path d="M3122.5,493.38h8.27V612h-8.27Z" transform="translate(-419.5 -482.51)"/><path d="M3164.79,525.57h6.73l.87,13.41h.39c7.85-8.8,17.68-15.57,27.33-15.57,13.86,0,20.79,7,23.86,17.64,9.81-10.8,19.37-17.64,29.34-17.64,17.21,0,25.85,10.83,25.85,33.15V612h-7.95V557.61c0-18.33-6.12-27-19.37-27-8.14,0-16.35,5.4-25.89,16.24V612H3218V557.61c0-18.33-6.12-27-19.37-27-7.81,0-16.34,5.4-25.88,16.24V612h-8Z" transform="translate(-419.5 -482.51)"/><path d="M3304.76,590.49c0-19.2,17.32-28.35,55.76-32.6.26-13.28-3.38-27.5-20.37-27.5-11.67,0-21.75,5.76-27.54,10.15l-3.67-5.9c6.12-4.32,18.1-11.23,32.14-11.23,20.49,0,27.4,14.87,27.4,33.37V612h-6.73l-.87-11.23h-.39c-8.82,7.13-19.33,13.39-30.67,13.39C3316.14,614.16,3304.76,606.71,3304.76,590.49Zm55.76,2.86V563.94c-35.49,4.11-47.62,12.35-47.62,26.14,0,12.4,8.38,17.17,18.32,17.17S3349.83,602.46,3360.52,593.35Z" transform="translate(-419.5 -482.51)"/><path d="M3392,629.68c0-7.55,5-15.23,12.92-20.85v-.72a15.54,15.54,0,0,1-7.63-13.86c0-7.74,5.58-13.24,9.43-15.94v-.72a31.75,31.75,0,0,1-10.95-23.69c0-17.78,13.54-30.49,30.42-30.49a30.79,30.79,0,0,1,11.49,2.16H3467v6.76h-20.08a28.47,28.47,0,0,1,9.54,21.68c0,17.67-13.29,30.52-30.21,30.52a29.51,29.51,0,0,1-14.29-3.69c-3.74,3.08-7,6.75-7,12.51,0,6.23,3.6,11.23,16.49,11.23h18.52c19.42,0,28.49,6.2,28.49,19.84,0,14.9-15.94,29.19-40.85,29.19C3405.74,653.61,3392,644.25,3392,629.68Zm68.25-4.4c0-9.54-6.91-13.17-20-13.17h-18.52a54.94,54.94,0,0,1-10.69-1.41c-8,5.4-11.34,12.06-11.34,18.15,0,10.94,10.44,18.32,28.65,18.32C3447.86,647.17,3460.28,636.16,3460.28,625.28Zm-11.7-71.38c0-14.6-10.12-23.9-22.36-23.9s-22.35,9.14-22.35,23.9c0,14.47,10.44,24.26,22.35,24.26S3448.58,568.37,3448.58,553.9Z" transform="translate(-419.5 -482.51)"/><path d="M3477.74,569c0-28.19,18.33-45.54,37.69-45.54,20.49,0,33.09,14.58,33.09,40a38.17,38.17,0,0,1-.45,6.48h-62.16c.29,21.82,13.07,37.41,32.55,37.41a39,39,0,0,0,23.22-7.67l3.27,6c-6.8,4.25-14.58,8.5-27.25,8.5C3495.63,614.16,3477.74,597.2,3477.74,569Zm63.29-5.62c0-22.07-10-33.05-25.52-33.05-14.62,0-27.83,12.39-29.63,33.05Z" transform="translate(-419.5 -482.51)"/><path d="M3600.64,629.68c0-7.55,5-15.23,12.93-20.85v-.72a15.54,15.54,0,0,1-7.63-13.86c0-7.74,5.58-13.24,9.43-15.94v-.72a31.75,31.75,0,0,1-10.95-23.69c0-17.78,13.54-30.49,30.42-30.49a30.79,30.79,0,0,1,11.49,2.16h29.26v6.76H3655.5A28.47,28.47,0,0,1,3665,554c0,17.67-13.28,30.52-30.2,30.52a29.51,29.51,0,0,1-14.29-3.69c-3.74,3.08-7,6.75-7,12.51,0,6.23,3.6,11.23,16.49,11.23h18.52c19.42,0,28.49,6.2,28.49,19.84,0,14.9-16,29.19-40.86,29.19C3614.36,653.61,3600.64,644.25,3600.64,629.68Zm68.26-4.4c0-9.54-6.91-13.17-20-13.17h-18.52a54.94,54.94,0,0,1-10.69-1.41c-8,5.4-11.34,12.06-11.34,18.15,0,10.94,10.44,18.32,28.65,18.32C3656.48,647.17,3668.9,636.16,3668.9,625.28Zm-11.7-71.38c0-14.6-10.12-23.9-22.36-23.9s-22.35,9.14-22.35,23.9c0,14.47,10.44,24.26,22.35,24.26S3657.2,568.37,3657.2,553.9Z" transform="translate(-419.5 -482.51)"/><path d="M3695.61,525.57h6.73l.87,16.12h.39c5.85-10.61,14.31-18.28,24.59-18.28a18,18,0,0,1,8.57,1.8l-1.8,7.2a19.26,19.26,0,0,0-7.81-1.44c-7.78,0-17,5.9-23.58,22.24V612h-8Z" transform="translate(-419.5 -482.51)"/><path d="M3749.57,497.63c0-4.46,3.32-7.05,7.24-7.05s7.23,2.59,7.23,7.05a7.24,7.24,0,0,1-14.47,0Zm3.1,27.94h7.95V612h-7.95Z" transform="translate(-419.5 -482.51)"/><path d="M3786.69,569c0-27.9,17.71-45.54,38.34-45.54,10.36,0,17.42,3.92,26.06,10.62l-.43-15.88V482.51h8V612h-6.73l-.86-11.2h-.4c-7.09,7.1-16.7,13.36-28.19,13.36C3800.76,614.16,3786.69,598.1,3786.69,569Zm64,23.9V541.59c-9.11-8.1-16.71-11.13-25.2-11.13-17.17,0-30.42,16.78-30.42,38.45,0,23,10.22,38.19,28.55,38.19C3833.13,607.1,3841.59,602.1,3850.66,592.85Z" transform="translate(-419.5 -482.51)"/></g></svg>