<svg xmlns="http://www.w3.org/2000/svg" viewBox="0 0 4273.66 2865.02"><defs><style>.cls-1{opacity:0.35;}.cls-2{fill:#e5e5e5;stroke-width:7px;}.cls-2,.cls-3,.cls-6{stroke:#000;}.cls-2,.cls-3,.cls-4,.cls-6{stroke-miterlimit:10;}.cls-3,.cls-4,.cls-6{fill:none;}.cls-3,.cls-4{stroke-width:8px;}.cls-4{stroke:#666;}.cls-5{fill:#666;}.cls-6{stroke-linecap:round;stroke-width:6px;}</style></defs><title>unknown-ray</title><g id="Layer_7" data-name="Layer 7"><g class="cls-1"><polygon class="cls-2" points="3421.71 667.13 3129.01 701.33 3129.01 983.9 3421.71 961.2 3421.71 667.13"/><polygon class="cls-2" points="3129.01 701.33 2858.36 732.96 2858.36 1004.88 3129.01 983.9 3129.01 701.33"/><polygon class="cls-2" points="2858.36 732.96 2607.37 762.29 2607.37 1024.34 2858.36 1004.88 2858.36 732.96"/><polygon class="cls-2" points="2607.37 762.29 2373.96 789.57 2373.96 1042.44 2607.37 1024.34 2607.37 762.29"/><polygon class="cls-2" points="2373.96 789.57 2156.35 815 2156.35 1059.31 2373.96 1042.44 2373.96 789.57"/><polygon class="cls-2" points="2156.35 815 1952.99 838.77 1952.99 1075.08 2156.35 1059.31 2156.35 815"/><polygon class="cls-2" points="3421.71 961.2 3129.01 983.9 3129.01 1266.46 3421.71 1255.28 3421.71 961.2"/><polygon class="cls-2" points="3129.01 983.9 2858.36 1004.88 2858.36 1276.8 3129.01 1266.46 3129.01 983.9"/><polygon class="cls-2" points="2858.36 1004.88 2607.37 1024.34 2607.37 1286.39 2858.36 1276.8 2858.36 1004.88"/><polygon class="cls-2" points="2607.37 1024.34 2373.96 1042.44 2373.96 1295.31 2607.37 1286.39 2607.37 1024.34"/><polygon class="cls-2" points="2373.96 1042.44 2156.35 1059.31 2156.35 1303.62 2373.96 1295.31 2373.96 1042.44"/><polygon class="cls-2" points="2156.35 1059.31 1952.99 1075.08 1952.99 1311.39 2156.35 1303.62 2156.35 1059.31"/><polygon class="cls-2" points="3421.71 1255.28 3129.01 1266.46 3129.01 1549.03 3421.71 1549.35 3421.71 1255.28"/><polygon class="cls-2" points="3129.01 1266.46 2858.36 1276.8 2858.36 1548.72 3129.01 1549.03 3129.01 1266.46"/><polygon class="cls-2" points="2858.36 1276.8 2607.37 1286.39 2607.37 1548.44 2858.36 1548.72 2858.36 1276.8"/><polygon class="cls-2" points="2607.37 1286.39 2373.96 1295.31 2373.96 1548.18 2607.37 1548.44 2607.37 1286.39"/><polygon class="cls-2" points="2373.96 1295.31 2156.35 1303.62 2156.35 1547.93 2373.96 1548.18 2373.96 1295.31"/><polygon class="cls-2" points="2156.35 1303.62 1952.99 1311.39 1952.99 1547.7 2156.35 1547.93 2156.35 1303.62"/><polygon class="cls-2" points="3421.71 1549.35 3129.01 1549.03 3129.01 1831.59 3421.71 1843.43 3421.71 1549.35"/><polygon class="cls-2" points="3129.01 1549.03 2858.36 1548.72 2858.36 1820.64 3129.01 1831.59 3129.01 1549.03"/><polygon class="cls-2" points="2858.36 1548.72 2607.37 1548.44 2607.37 1810.49 2858.36 1820.64 2858.36 1548.72"/><polygon class="cls-2" points="2607.37 1548.44 2373.96 1548.18 2373.96 1801.04 2607.37 1810.49 2607.37 1548.44"/><polygon class="cls-2" points="2373.96 1548.18 2156.35 1547.93 2156.35 1792.24 2373.96 1801.04 2373.96 1548.18"/><polygon class="cls-2" points="2156.35 1547.93 1952.99 1547.7 1952.99 1784.01 2156.35 1792.24 2156.35 1547.93"/><polygon class="cls-2" points="3421.71 1843.43 3129.01 1831.59 3129.01 2114.15 3421.71 2137.5 3421.71 1843.43"/><polygon class="cls-2" points="3129.01 1831.59 2858.36 1820.64 2858.36 2092.56 3129.01 2114.15 3129.01 1831.59"/><polygon class="cls-2" points="2858.36 1820.64 2607.37 1810.49 2607.37 2072.53 2858.36 2092.56 2858.36 1820.64"/><polygon class="cls-2" points="2607.37 1810.49 2373.96 1801.04 2373.96 2053.91 2607.37 2072.53 2607.37 1810.49"/><polygon class="cls-2" points="2373.96 1801.04 2156.35 1792.24 2156.35 2036.55 2373.96 2053.91 2373.96 1801.04"/><polygon class="cls-2" points="2156.35 1792.24 1952.99 1784.01 1952.99 2020.33 2156.35 2036.55 2156.35 1792.24"/><polygon class="cls-2" points="3421.71 2137.5 3129.01 2114.15 3129.01 2396.72 3421.71 2431.58 3421.71 2137.5"/><polygon class="cls-2" points="3129.01 2114.15 2858.36 2092.56 2858.36 2364.48 3129.01 2396.72 3129.01 2114.15"/><polygon class="cls-2" points="2858.36 2092.56 2607.37 2072.53 2607.37 2334.58 2858.36 2364.48 2858.36 2092.56"/><polygon class="cls-2" points="2607.37 2072.53 2373.96 2053.91 2373.96 2306.78 2607.37 2334.58 2607.37 2072.53"/><polygon class="cls-2" points="2373.96 2053.91 2156.35 2036.55 2156.35 2280.86 2373.96 2306.78 2373.96 2053.91"/><polygon class="cls-2" points="2156.35 2036.55 1952.99 2020.33 1952.99 2256.64 2156.35 2280.86 2156.35 2036.55"/></g><polygon class="cls-3" points="3421.71 667.13 3421.71 2431.58 1952.99 2256.64 1952.99 838.77 3421.71 667.13"/><path d="M2362.25,376.25h8.28V494.87h-8.28Z"/><path d="M2404.55,408.44h6.73l.87,13.41h.39c7.85-8.8,17.68-15.57,27.33-15.57,13.86,0,20.79,7,23.86,17.64,9.81-10.8,19.37-17.64,29.34-17.64,17.21,0,25.85,10.83,25.85,33.15v55.44h-8V440.48c0-18.33-6.11-27-19.36-27-8.14,0-16.35,5.4-25.89,16.24v65.19h-7.95V440.48c0-18.33-6.12-27-19.37-27-7.81,0-16.34,5.4-25.88,16.24v65.19h-8Z"/><path d="M2544.52,473.36c0-19.2,17.32-28.35,55.76-32.6.25-13.28-3.38-27.5-20.37-27.5-11.67,0-21.75,5.76-27.54,10.15l-3.67-5.9c6.12-4.32,18.1-11.23,32.14-11.23,20.49,0,27.4,14.87,27.4,33.37v55.22h-6.73l-.87-11.23h-.39c-8.82,7.13-19.34,13.39-30.67,13.39C2555.9,497,2544.52,489.58,2544.52,473.36Zm55.76,2.86V446.81c-35.49,4.11-47.63,12.35-47.63,26.14,0,12.4,8.39,17.17,18.33,17.17S2589.59,485.33,2600.28,476.22Z"/><path d="M2631.78,512.55c0-7.55,5-15.23,12.93-20.85V491a15.54,15.54,0,0,1-7.63-13.86c0-7.74,5.58-13.24,9.43-15.94v-.72a31.75,31.75,0,0,1-11-23.69c0-17.78,13.54-30.49,30.42-30.49a30.79,30.79,0,0,1,11.49,2.16h29.26v6.77h-20.08a28.44,28.44,0,0,1,9.54,21.67c0,17.67-13.29,30.52-30.21,30.52a29.51,29.51,0,0,1-14.29-3.69c-3.74,3.08-7,6.75-7,12.51,0,6.23,3.6,11.24,16.49,11.24h18.52c19.42,0,28.49,6.19,28.49,19.83,0,14.9-15.94,29.19-40.85,29.19C2645.5,536.48,2631.78,527.13,2631.78,512.55Zm68.26-4.4c0-9.54-6.91-13.17-20-13.17h-18.52a54.94,54.94,0,0,1-10.69-1.41c-8,5.4-11.34,12.06-11.34,18.15,0,10.94,10.44,18.32,28.65,18.32C2687.62,530,2700,519,2700,508.15Zm-11.7-71.38c0-14.6-10.12-23.9-22.36-23.9s-22.35,9.14-22.35,23.9c0,14.47,10.44,24.26,22.35,24.26S2688.34,451.24,2688.34,436.77Z"/><path d="M2717.5,451.82c0-28.19,18.33-45.54,37.69-45.54,20.49,0,33.09,14.58,33.09,40a38.17,38.17,0,0,1-.45,6.48h-62.16c.29,21.82,13.07,37.41,32.55,37.41a39,39,0,0,0,23.22-7.67l3.27,6.05c-6.8,4.24-14.58,8.49-27.25,8.49C2735.39,497,2717.5,480.08,2717.5,451.82Zm63.29-5.62c0-22.07-10-33.05-25.52-33.05-14.62,0-27.83,12.39-29.63,33.05Z"/><path d="M2840.4,512.55c0-7.55,5-15.23,12.93-20.85V491a15.54,15.54,0,0,1-7.63-13.86c0-7.74,5.58-13.24,9.43-15.94v-.72a31.75,31.75,0,0,1-11-23.69c0-17.78,13.54-30.49,30.42-30.49a30.79,30.79,0,0,1,11.49,2.16h29.26v6.77h-20.09a28.44,28.44,0,0,1,9.54,21.67c0,17.67-13.28,30.52-30.2,30.52a29.51,29.51,0,0,1-14.29-3.69c-3.74,3.08-7,6.75-7,12.51,0,6.23,3.6,11.24,16.49,11.24h18.52c19.42,0,28.49,6.19,28.49,19.83,0,14.9-15.95,29.19-40.86,29.19C2854.12,536.48,2840.4,527.13,2840.4,512.55Zm68.26-4.4c0-9.54-6.91-13.17-20-13.17h-18.52a54.94,54.94,0,0,1-10.69-1.41c-8,5.4-11.34,12.06-11.34,18.15,0,10.94,10.44,18.32,28.65,18.32C2896.24,530,2908.66,519,2908.66,508.15ZM2897,436.77c0-14.6-10.12-23.9-22.36-23.9s-22.35,9.14-22.35,23.9c0,14.47,10.44,24.26,22.35,24.26S2897,451.24,2897,436.77Z"/><path d="M2935.37,408.44h6.73l.87,16.13h.39c5.85-10.62,14.31-18.29,24.59-18.29a18,18,0,0,1,8.57,1.8l-1.8,7.2a19.26,19.26,0,0,0-7.81-1.44c-7.78,0-17,5.9-23.58,22.24v58.79h-8Z"/><path d="M2989.33,380.5c0-4.46,3.32-7.05,7.24-7.05s7.23,2.59,7.23,7.05a7.24,7.24,0,0,1-14.47,0Zm3.1,27.94h8v86.43h-8Z"/><path d="M3026.45,451.82c0-27.9,17.71-45.54,38.34-45.54,10.36,0,17.42,3.92,26.06,10.62l-.43-15.88V365.38h7.95V494.87h-6.73l-.86-11.2h-.4c-7.09,7.1-16.7,13.36-28.19,13.36C3040.52,497,3026.45,481,3026.45,451.82Zm64,23.9V424.46c-9.11-8.1-16.71-11.13-25.2-11.13-17.17,0-30.42,16.78-30.42,38.45,0,23,10.22,38.2,28.55,38.2C3072.89,490,3081.35,485,3090.42,475.72Z"/><polyline class="cls-4" points="2292.99 919.13 530.99 1891.13 2717.99 1144.13"/><line class="cls-4" x1="530.99" y1="1891.13" x2="2478.92" y2="1684.13"/><circle cx="539.99" cy="1891.13" r="36"/><polygon class="cls-5" points="2240.99 910.13 2276.99 964.13 2312.99 910.13 2240.99 910.13"/><polygon class="cls-5" points="2698.16 1118.57 2720.78 1179.4 2768.23 1135.13 2698.16 1118.57"/><polygon class="cls-5" points="2454.75 1655.97 2464.52 1720.13 2510.99 1684.13 2454.75 1655.97"/></g><g id="Layer_8" data-name="Layer 8"><path d="M2375.4,853.12c0-9.67-5.82-17.42-17.36-17.42-7.94,0-15.08,3.92-20.67,10.29l-8.5-7.74c7.56-8.49,17.82-14.88,30.86-14.88,18.2,0,30.17,11,30.17,28.72,0,23.65-29,33.16-26.07,58.31h-13.12C2346.89,882.45,2375.4,872.14,2375.4,853.12Zm-28.46,84c0-6.8,4.83-11.44,10.72-11.44s10.72,4.64,10.72,11.44c0,6.57-4.83,11.21-10.72,11.21S2346.94,943.65,2346.94,937.08Z"/><text/><path d="M2834.4,1105.12c0-9.67-5.82-17.42-17.36-17.42-7.94,0-15.08,3.92-20.67,10.29l-8.5-7.74c7.56-8.49,17.82-14.88,30.86-14.88,18.2,0,30.17,11.05,30.17,28.72,0,23.65-29,33.16-26.07,58.31h-13.12C2805.89,1134.45,2834.4,1124.14,2834.4,1105.12Zm-28.46,84c0-6.8,4.83-11.44,10.72-11.44s10.72,4.64,10.72,11.44c0,6.57-4.83,11.21-10.72,11.21S2805.94,1195.65,2805.94,1189.08Z"/><path d="M2582.4,1645.12c0-9.67-5.82-17.42-17.36-17.42-7.94,0-15.08,3.92-20.67,10.29l-8.5-7.74c7.56-8.49,17.82-14.88,30.86-14.88,18.2,0,30.17,11.05,30.17,28.72,0,23.65-29,33.16-26.07,58.31h-13.12C2553.89,1674.45,2582.4,1664.14,2582.4,1645.12Zm-28.46,84c0-6.8,4.83-11.44,10.72-11.44s10.72,4.64,10.72,11.44c0,6.57-4.83,11.21-10.72,11.21S2553.94,1735.65,2553.94,1729.08Z"/><path d="M676.69,2051.32h6.23l-2.67,16.35H681c7.17-10.23,16-18.5,27-18.5a21,21,0,0,1,7.77,1.47l-2.88,7a14.1,14.1,0,0,0-6.76-1.44c-9.18,0-20.2,8.89-28,24.33l-11.34,57.21h-7.42Z"/><path d="M715.28,2105.72c0-32.33,22.07-56.55,45.61-56.55,17.71,0,29.2,12.52,29.2,34.19,0,32.33-22.07,56.56-45.61,56.56C726.76,2139.92,715.28,2127.39,715.28,2105.72Zm67.35-21.35c0-18.72-8.1-28.69-22.39-28.69-18.54,0-37.51,22.46-37.51,49,0,18.72,8.1,28.69,22.39,28.69C763.66,2133.4,782.63,2110.94,782.63,2084.37Z"/><line class="cls-6" x1="773.38" y1="2018.12" x2="710.38" y2="2018.12"/><path class="cls-6" d="M759.28,1999.4a26.75,26.75,0,0,0,5.46,10.83,37.06,37.06,0,0,0,8.52,7.58"/><path class="cls-6" d="M759.42,2035.6a19.54,19.54,0,0,1,4.46-9.83,37.26,37.26,0,0,1,8.51-7.58"/></g></svg>