<svg id="Layer_1" data-name="Layer 1" xmlns="http://www.w3.org/2000/svg" viewBox="0 0 2921.72 2070.7"><defs><style>.cls-1{opacity:0.35;}.cls-2{fill:#e5e5e5;stroke-width:7px;}.cls-12,.cls-2,.cls-3,.cls-6,.cls-7{stroke:#000;}.cls-10,.cls-11,.cls-12,.cls-2,.cls-3,.cls-4,.cls-6,.cls-7,.cls-8,.cls-9{stroke-miterlimit:10;}.cls-10,.cls-12,.cls-3,.cls-4,.cls-6,.cls-7,.cls-8{fill:none;}.cls-3,.cls-4{stroke-width:8px;}.cls-10,.cls-11,.cls-4,.cls-8,.cls-9{stroke:#1a1a1a;}.cls-5{fill:#1a1a1a;}.cls-6,.cls-7{stroke-width:6px;}.cls-7{stroke-linecap:round;}.cls-12,.cls-8{stroke-width:16px;}.cls-10,.cls-9{stroke-width:4px;}.cls-11{stroke-width:5px;}</style></defs><g id="Layer_7" data-name="Layer 7"><g class="cls-1"><polygon class="cls-2" points="2917.72 301.74 2625.02 335.95 2625.02 618.51 2917.72 595.82 2917.72 301.74"/><polygon class="cls-2" points="2625.02 335.95 2354.38 367.58 2354.38 639.5 2625.02 618.51 2625.02 335.95"/><polygon class="cls-2" points="2354.38 367.58 2103.38 396.91 2103.38 658.96 2354.38 639.5 2354.38 367.58"/><polygon class="cls-2" points="2103.38 396.91 1869.97 424.19 1869.97 677.06 2103.38 658.96 2103.38 396.91"/><polygon class="cls-2" points="1869.97 424.19 1652.36 449.62 1652.36 693.93 1869.97 677.06 1869.97 424.19"/><polygon class="cls-2" points="1652.36 449.62 1449 473.38 1449 709.7 1652.36 693.93 1652.36 449.62"/><polygon class="cls-2" points="2917.72 595.82 2625.02 618.51 2625.02 901.08 2917.72 889.89 2917.72 595.82"/><polygon class="cls-2" points="2625.02 618.51 2354.38 639.5 2354.38 911.42 2625.02 901.08 2625.02 618.51"/><polygon class="cls-2" points="2354.38 639.5 2103.38 658.96 2103.38 921.01 2354.38 911.42 2354.38 639.5"/><polygon class="cls-2" points="2103.38 658.96 1869.97 677.06 1869.97 929.92 2103.38 921.01 2103.38 658.96"/><polygon class="cls-2" points="1869.97 677.06 1652.36 693.93 1652.36 938.24 1869.97 929.92 1869.97 677.06"/><polygon class="cls-2" points="1652.36 693.93 1449 709.7 1449 946.01 1652.36 938.24 1652.36 693.93"/><polygon class="cls-2" points="2917.72 889.89 2625.02 901.08 2625.02 1183.64 2917.72 1183.97 2917.72 889.89"/><polygon class="cls-2" points="2625.02 901.08 2354.38 911.42 2354.38 1183.34 2625.02 1183.64 2625.02 901.08"/><polygon class="cls-2" points="2354.38 911.42 2103.38 921.01 2103.38 1183.06 2354.38 1183.34 2354.38 911.42"/><polygon class="cls-2" points="2103.38 921.01 1869.97 929.92 1869.97 1182.79 2103.38 1183.06 2103.38 921.01"/><polygon class="cls-2" points="1869.97 929.92 1652.36 938.24 1652.36 1182.55 1869.97 1182.79 1869.97 929.92"/><polygon class="cls-2" points="1652.36 938.24 1449 946.01 1449 1182.32 1652.36 1182.55 1652.36 938.24"/><polygon class="cls-2" points="2917.72 1183.97 2625.02 1183.64 2625.02 1466.2 2917.72 1478.05 2917.72 1183.97"/><polygon class="cls-2" points="2625.02 1183.64 2354.38 1183.34 2354.38 1455.26 2625.02 1466.2 2625.02 1183.64"/><polygon class="cls-2" points="2354.38 1183.34 2103.38 1183.06 2103.38 1445.1 2354.38 1455.26 2354.38 1183.34"/><polygon class="cls-2" points="2103.38 1183.06 1869.97 1182.79 1869.97 1435.66 2103.38 1445.1 2103.38 1183.06"/><polygon class="cls-2" points="1869.97 1182.79 1652.36 1182.55 1652.36 1426.86 1869.97 1435.66 1869.97 1182.79"/><polygon class="cls-2" points="1652.36 1182.55 1449 1182.32 1449 1418.63 1652.36 1426.86 1652.36 1182.55"/><polygon class="cls-2" points="2917.72 1478.05 2625.02 1466.2 2625.02 1748.77 2917.72 1772.12 2917.72 1478.05"/><polygon class="cls-2" points="2625.02 1466.2 2354.38 1455.26 2354.38 1727.18 2625.02 1748.77 2625.02 1466.2"/><polygon class="cls-2" points="2354.38 1455.26 2103.38 1445.1 2103.38 1707.15 2354.38 1727.18 2354.38 1455.26"/><polygon class="cls-2" points="2103.38 1445.1 1869.97 1435.66 1869.97 1688.53 2103.38 1707.15 2103.38 1445.1"/><polygon class="cls-2" points="1869.97 1435.66 1652.36 1426.86 1652.36 1671.17 1869.97 1688.53 1869.97 1435.66"/><polygon class="cls-2" points="1652.36 1426.86 1449 1418.63 1449 1654.94 1652.36 1671.17 1652.36 1426.86"/><polygon class="cls-2" points="2917.72 1772.12 2625.02 1748.77 2625.02 2031.33 2917.72 2066.2 2917.72 1772.12"/><polygon class="cls-2" points="2625.02 1748.77 2354.38 1727.18 2354.38 1999.1 2625.02 2031.33 2625.02 1748.77"/><polygon class="cls-2" points="2354.38 1727.18 2103.38 1707.15 2103.38 1969.2 2354.38 1999.1 2354.38 1727.18"/><polygon class="cls-2" points="2103.38 1707.15 1869.97 1688.53 1869.97 1941.4 2103.38 1969.2 2103.38 1707.15"/><polygon class="cls-2" points="1869.97 1688.53 1652.36 1671.17 1652.36 1915.48 1869.97 1941.4 1869.97 1688.53"/><polygon class="cls-2" points="1652.36 1671.17 1449 1654.94 1449 1891.25 1652.36 1915.48 1652.36 1671.17"/></g><polygon class="cls-3" points="2917.72 301.74 2917.72 2066.2 1449 1891.25 1449 473.38 2917.72 301.74"/><path d="M1858.26,10.88h8.28V129.49h-8.28Z"/><path d="M1900.56,43.06h6.73l.87,13.41h.39c7.85-8.8,17.68-15.57,27.33-15.57,13.86,0,20.79,7,23.86,17.64,9.81-10.8,19.37-17.64,29.34-17.64,17.21,0,25.85,10.83,25.85,33.15v55.44h-8V75.1c0-18.33-6.11-27-19.36-27-8.14,0-16.35,5.4-25.89,16.24v65.19h-8V75.1c0-18.33-6.12-27-19.37-27-7.81,0-16.34,5.4-25.88,16.24v65.19h-8Z"/><path d="M2040.53,108c0-19.2,17.32-28.35,55.76-32.59.25-13.29-3.38-27.51-20.37-27.51-11.67,0-21.75,5.76-27.54,10.15l-3.67-5.9c6.12-4.32,18.1-11.23,32.14-11.23,20.49,0,27.4,14.87,27.4,33.37v55.22h-6.73l-.87-11.23h-.39c-8.82,7.13-19.34,13.39-30.67,13.39C2051.91,131.62,2040.53,124.2,2040.53,108Zm55.76,2.86V81.43c-35.49,4.11-47.63,12.35-47.63,26.14,0,12.4,8.39,17.17,18.33,17.17s18.61-4.79,29.3-13.9Z"/><path d="M2127.79,147.17c0-7.55,5-15.23,12.93-20.85v-.7a15.54,15.54,0,0,1-7.63-13.86c0-7.74,5.58-13.24,9.43-15.94V95.1a31.73,31.73,0,0,1-11-23.69c0-17.78,13.54-30.49,30.42-30.49a30.77,30.77,0,0,1,11.49,2.16h29.26v6.76h-20.08a28.46,28.46,0,0,1,9.54,21.68c0,17.67-13.29,30.52-30.21,30.52a29.5,29.5,0,0,1-14.29-3.69c-3.74,3.08-7,6.75-7,12.51,0,6.23,3.6,11.23,16.49,11.23h18.52c19.42,0,28.49,6.2,28.49,19.84,0,14.9-15.94,29.19-40.85,29.19C2141.51,171.1,2127.79,161.74,2127.79,147.17Zm68.26-4.4c0-9.54-6.91-13.17-20-13.17h-18.52a55,55,0,0,1-10.69-1.41c-8,5.4-11.34,12.06-11.34,18.15,0,10.94,10.44,18.32,28.65,18.32,19.48,0,31.86-11,31.86-21.89Zm-11.7-71.38c0-14.6-10.12-23.9-22.36-23.9s-22.35,9.14-22.35,23.9c0,14.47,10.44,24.26,22.35,24.26S2184.35,85.86,2184.35,71.39Z"/><path d="M2213.51,86.44c0-28.19,18.33-45.54,37.69-45.54,20.49,0,33.09,14.58,33.09,40a39,39,0,0,1-.45,6.48h-62.16c.29,21.82,13.07,37.41,32.55,37.41a39,39,0,0,0,23.22-7.67l3.27,6c-6.8,4.25-14.58,8.5-27.25,8.5C2231.4,131.62,2213.51,114.69,2213.51,86.44Zm63.29-5.62c0-22.07-10-33-25.52-33-14.62,0-27.83,12.39-29.63,33Z"/><path d="M2336.41,147.17c0-7.55,5-15.23,12.93-20.85v-.7a15.54,15.54,0,0,1-7.63-13.86c0-7.74,5.58-13.24,9.43-15.94V95.1a31.73,31.73,0,0,1-11-23.69c0-17.78,13.54-30.49,30.42-30.49a30.77,30.77,0,0,1,11.49,2.16h29.26v6.76h-20.09a28.46,28.46,0,0,1,9.54,21.68c0,17.67-13.28,30.52-30.2,30.52a29.5,29.5,0,0,1-14.29-3.69c-3.74,3.08-7,6.75-7,12.51,0,6.23,3.6,11.23,16.49,11.23h18.52c19.42,0,28.49,6.2,28.49,19.84,0,14.9-15.95,29.19-40.86,29.19C2350.13,171.1,2336.41,161.74,2336.41,147.17Zm68.26-4.4c0-9.54-6.91-13.17-20-13.17h-18.52a55,55,0,0,1-10.69-1.41c-8,5.4-11.34,12.06-11.34,18.15,0,10.94,10.44,18.32,28.65,18.32C2392.25,164.62,2404.67,153.62,2404.67,142.77ZM2393,71.39c0-14.6-10.12-23.9-22.36-23.9s-22.35,9.14-22.35,23.9c0,14.47,10.44,24.26,22.35,24.26S2393,85.86,2393,71.39Z"/><path d="M2431.38,43.06h6.73l.87,16.13h.39c5.85-10.62,14.31-18.29,24.59-18.29a18,18,0,0,1,8.57,1.8l-1.8,7.2a19.15,19.15,0,0,0-7.81-1.44c-7.78,0-17,5.9-23.58,22.24v58.79h-8Z"/><path d="M2485.34,15.12c0-4.46,3.32-7,7.24-7s7.23,2.59,7.23,7a7.24,7.24,0,0,1-14.47,0Zm3.1,27.94h8v86.43h-8Z"/><path d="M2522.46,86.44c0-27.9,17.71-45.54,38.34-45.54,10.36,0,17.42,3.92,26.06,10.62l-.43-15.88V0h8V129.49h-6.73l-.86-11.2h-.4c-7.09,7.1-16.7,13.36-28.19,13.36C2536.53,131.62,2522.46,115.62,2522.46,86.44Zm64,23.9V59.08C2577.35,51,2569.75,48,2561.26,48c-17.17,0-30.42,16.78-30.42,38.45,0,23,10.22,38.2,28.55,38.2,9.51,0,18-5,27-14.26Z"/></g><g id="Layer_8" data-name="Layer 8"><line class="cls-4" x1="36" y1="1525.74" x2="2103.38" y2="1183.05"/><circle class="cls-5" cx="36" cy="1525.74" r="36"/><polygon class="cls-5" points="2033.38 1142.66 2053.46 1239.7 2121.4 1181.06 2033.38 1142.66"/><polygon class="cls-5" points="2097.42 582.47 2056.78 672.85 2146.2 665.19 2097.42 582.47"/><path d="M172.7,1685.94h6.23l-2.67,16.35H177c7.17-10.23,16-18.51,27-18.51a21.08,21.08,0,0,1,7.77,1.48l-2.88,7a14.12,14.12,0,0,0-6.76-1.44c-9.18,0-20.2,8.89-28,24.33l-11.34,57.21h-7.42Z"/><path d="M211.29,1740.34c0-32.33,22.07-56.56,45.61-56.56,17.71,0,29.2,12.53,29.2,34.2,0,32.33-22.07,56.56-45.61,56.56C222.77,1774.54,211.29,1762,211.29,1740.34ZM278.64,1719c0-18.72-8.1-28.69-22.39-28.69-18.54,0-37.51,22.46-37.51,49,0,18.72,8.1,28.69,22.39,28.69,18.54,0,37.51-22.43,37.51-49Z"/><path class="cls-6" d="M151,1576.16"/><line class="cls-7" x1="269.39" y1="1652.74" x2="206.39" y2="1652.74"/><path class="cls-7" d="M255.29,1634a26.7,26.7,0,0,0,5.46,10.83,37.08,37.08,0,0,0,8.52,7.58"/><path class="cls-7" d="M255.43,1670.22a19.5,19.5,0,0,1,4.46-9.83,37.27,37.27,0,0,1,8.51-7.58"/><path class="cls-8" d="M2103.38,648.89v534.17l515.1,2"/><polygon class="cls-5" points="2585.83 1133.97 2583.56 1233.04 2662.95 1191.19 2585.83 1133.97"/><path class="cls-9" d="M2149.22,505.11c0-13.68,8.07-24.23,19.59-30.24l2.37,4.46c-9.84,5.67-15.15,13.93-15.15,21.6l.79,9.68-4.75-7.77a6.23,6.23,0,0,1,4.71-2.27c3.75,0,6.63,2.09,6.63,6.12s-2.92,7.49-6.88,7.49C2152.39,514.18,2149.22,510.87,2149.22,505.11Zm24.09,0c0-13.68,8.06-24.23,19.58-30.24l2.38,4.46c-9.85,5.67-15.16,13.93-15.16,21.6l.79,9.68-4.75-7.77a6.26,6.26,0,0,1,4.72-2.27c3.74,0,6.62,2.09,6.62,6.12s-2.92,7.49-6.88,7.49C2176.47,514.18,2173.31,510.87,2173.31,505.11Z"/><path class="cls-9" d="M2220.86,482.07h7.74l-13.9,69.48a60.47,60.47,0,0,0-1.76,14.61c0,19,9.11,30,27.47,30,15,0,28.83-10.84,34.41-39.1l14.94-75h7.67l-15.26,76.21c-6.56,32.83-23.62,44.56-42.48,44.56-21.71,0-34.49-12.67-34.49-35.31a80.69,80.69,0,0,1,1.55-15.26Z"/><path class="cls-9" d="M2311.44,608.42l-5.94,31.4h-7.42l25.13-125.57h6.22l-1.87,12.31h.69c9.21-7.52,19.9-14.47,31.78-14.47,15.2,0,25.2,11.07,25.2,31.18,0,33.22-23,59.57-46.9,59.57-10.08,0-17.86-5.86-22.75-13.93h-.36Zm15-73.54-9.36,46.47c6.33,10.84,13.21,14.94,21.34,14.94,20.49,0,39.28-25.7,39.28-51.69,0-17.3-7.45-26-19.3-26-9.53,0-22.13,6.74-32,16.28Z"/><path class="cls-9" d="M2402.12,509.28c9.84-5.67,15.15-13.93,15.15-21.6l-.79-9.68,4.75,7.78a6.22,6.22,0,0,1-4.71,2.26c-3.75,0-6.63-2.08-6.63-6.12s2.92-7.48,6.88-7.48c4.14,0,7.31,3.31,7.31,9.07,0,13.68-8.07,24.23-19.59,30.24Zm24.08,0c9.85-5.67,15.16-13.93,15.16-21.6l-.8-9.68,4.76,7.78a6.25,6.25,0,0,1-4.72,2.26c-3.74,0-6.62-2.08-6.62-6.12s2.91-7.48,6.87-7.48c4.14,0,7.31,3.31,7.31,9.07,0,13.68-8.06,24.23-19.58,30.24Z"/><path class="cls-9" d="M2413.26,1282c0-13.68,8.06-24.23,19.58-30.24l2.38,4.46c-9.85,5.67-15.16,13.93-15.16,21.6l.79,9.68-4.75-7.77a6.26,6.26,0,0,1,4.72-2.27c3.74,0,6.62,2.09,6.62,6.12s-2.91,7.49-6.87,7.49C2416.43,1291.05,2413.26,1287.74,2413.26,1282Zm24.08,0c0-13.68,8.06-24.23,19.58-30.24l2.38,4.46c-9.85,5.67-15.16,13.93-15.16,21.6l.8,9.68-4.76-7.77a6.26,6.26,0,0,1,4.72-2.27c3.74,0,6.62,2.09,6.62,6.12s-2.91,7.49-6.87,7.49C2440.51,1291.05,2437.34,1287.74,2437.34,1282Z"/><path class="cls-9" d="M2485.29,1258.94h29.77c21.46,0,34.92,7.63,34.92,26.1,0,24-19.8,38.26-45.57,38.26h-24.27l-10.83,54.25h-7.74Zm17.1,57.88c25.52,0,39.89-11.77,39.89-31,0-14.79-10.33-20.37-30.53-20.37h-20.16l-10,51.4Zm1.4,5.48,6.59-3.82,24.26,59.07h-8.53Z"/><path class="cls-9" d="M2574.82,1291.12h7.42l-17.35,86.43h-7.42Zm2.34-26.78a7.85,7.85,0,0,1,7.56-8.1,5.9,5.9,0,0,1,6.06,5.74c0,.15,0,.3,0,.45a7.72,7.72,0,0,1-7.56,7.78,5.8,5.8,0,0,1-6.05-5.54v-.33Z"/><path class="cls-9" d="M2590.48,1407.25l4.14-5.47c6.52,6,15,11,25.56,11,16.92,0,26.4-12.19,30.31-30.42l4.36-20.27c-9.83,9.54-20.16,15.8-32.11,15.8-14.8,0-25-10.73-25-30.67,0-32,22.93-58.21,45.83-58.21,10,0,17.71,5.62,22.25,14.08h.68l3.31-11.92h6.2l-18.9,93.85c-4.45,21.24-17.24,34.23-37.37,34.23C2607.44,1419.2,2598,1413.62,2590.48,1407.25Zm65.45-53.49,8.89-42.66c-6.54-11.16-13.25-15.59-21.35-15.59-19.51,0-38.2,25.53-38.2,50.33,0,17,7.13,25.45,18.94,25.45C2633.79,1371.29,2646.06,1364.62,2655.93,1353.76Z"/><path class="cls-9" d="M2716.69,1248.07h7.42l-9.68,48-2.38,9h.72c11.09-9.39,20.77-16.09,31.25-16.09,14.76,0,20.59,8.57,20.59,21.13a46.81,46.81,0,0,1-1.44,11.67L2752,1377.55h-7.42l11.09-54.79a50.64,50.64,0,0,0,1.44-11.16c0-10.54-4.5-16-15.33-16-7.64,0-17.79,5.51-30.75,18.18l-12.78,63.75h-7.41Z"/><path class="cls-9" d="M2787.36,1362.62a59.41,59.41,0,0,1,.79-8.63l11.7-56.42h-13.46l1.08-5.68,13.93-.76,6-24.66h6.3l-5,24.66H2832l-1.41,6.44h-23.4l-11.7,56.85a39,39,0,0,0-.68,6.73c0,8,2.88,12.13,12.2,12.13,4.11,0,7.56-1.69,10.37-3.1l2.12,5.58c-3.42,1.8-8.38,4-13.93,4C2792,1379.71,2787.36,1371.87,2787.36,1362.62Z"/><path class="cls-9" d="M2848.49,1286.15c9.85-5.67,15.15-13.93,15.15-21.6l-.79-9.68,4.75,7.78a6.27,6.27,0,0,1-4.71,2.26c-3.74,0-6.62-2.08-6.62-6.12s2.91-7.48,6.87-7.48c4.14,0,7.31,3.31,7.31,9.07,0,13.68-8.06,24.22-19.58,30.24Zm24.08,0c9.85-5.67,15.16-13.93,15.16-21.6l-.8-9.68,4.76,7.78a6.29,6.29,0,0,1-4.72,2.26c-3.74,0-6.62-2.08-6.62-6.12s2.91-7.48,6.87-7.48c4.14,0,7.31,3.31,7.31,9.07,0,13.68-8.06,24.22-19.58,30.24Z"/><path class="cls-9" d="M503.86,1082.76c0-13.68,8.06-24.23,19.58-30.24l2.37,4.47c-9.84,5.67-15.15,13.93-15.15,21.59l.79,9.69-4.75-7.78a6.22,6.22,0,0,1,4.71-2.26c3.75,0,6.63,2.08,6.63,6.11s-2.92,7.49-6.88,7.49C507,1091.83,503.86,1088.52,503.86,1082.76Zm24.08,0c0-13.68,8.06-24.23,19.58-30.24l2.38,4.47c-9.85,5.67-15.16,13.93-15.16,21.59l.79,9.69-4.75-7.78a6.25,6.25,0,0,1,4.72-2.26c3.74,0,6.62,2.08,6.62,6.11s-2.92,7.49-6.87,7.49c-4.14,0-7.31-3.31-7.31-9.07Z"/><path class="cls-9" d="M575.89,1059.72h62.53l-1.44,6.63H582.15l-9.54,48.09H619l-1.44,6.62H571.5l-11.6,57.28h-7.73Z"/><path class="cls-9" d="M633.24,1146.3c0-32.33,22.06-56.55,45.61-56.55,17.71,0,29.19,12.52,29.19,34.19,0,32.33-22.07,56.56-45.61,56.56C644.72,1180.5,633.24,1168,633.24,1146.3ZM700.59,1125c0-18.72-8.1-28.69-22.39-28.69-18.54,0-37.51,22.46-37.51,49,0,18.72,8.1,28.69,22.39,28.69,18.54,0,37.51-22.43,37.51-49Z"/><path class="cls-9" d="M740.62,1091.9h6.23l-2.66,16.35h.72c7.16-10.22,16-18.5,27-18.5a21,21,0,0,1,7.78,1.47l-2.88,7a14.16,14.16,0,0,0-6.77-1.44c-9.18,0-20.2,8.89-28,24.34l-11.34,57.2h-7.41Z"/><path class="cls-9" d="M787,1091.9h7.38l4.45,56.49c.61,8,1.17,15.71,1.76,23.43h.72c3.56-7.72,6.79-15.44,10.4-23.43l25.94-56.49h8.93l4,56.49c.34,8,.93,15.71,1.25,23.43h.73c3.56-7.72,6.73-15.42,10.61-23.43l26.39-56.49h7.2l-40.68,86.44H845.94l-3.56-53.89c-.61-8.28-.63-17.53-1.23-25.63h-.72c-3.58,8.1-7.39,17.35-11.26,25.63l-24.63,53.89h-10Z"/><path class="cls-9" d="M905.43,1149.32c0-33.22,23-59.57,46.9-59.57,10.16,0,17.75,5.61,22.29,14.07h.68l3.31-11.92h6.19l-17.35,86.44h-6.22l1.94-13.75h-.68c-8.9,9.25-20,15.91-31.86,15.91C915.44,1180.5,905.43,1169.62,905.43,1149.32Zm59.18,5.94,9-43.38c-6.37-11.16-13.28-15.58-21.38-15.58C931.74,1096.3,913,1122,913,1148c0,17.46,7.45,26,19.3,26,11.16,0,22.17-6.74,32.36-18.73Z"/><path class="cls-9" d="M1016.92,1091.9h6.23l-2.67,16.35h.72c7.17-10.22,16-18.5,27-18.5a20.87,20.87,0,0,1,7.77,1.47l-2.88,7a14.16,14.16,0,0,0-6.77-1.44c-9.18,0-20.19,8.89-28,24.34l-11.34,57.2h-7.42Z"/><path class="cls-9" d="M1128.69,1086.47l7.64-37.62h7.41l-26.17,129.49h-6.23l2-13.75h-.69c-8.89,9.25-20,15.91-31.86,15.91-15.19,0-25.2-10.91-25.2-31.18,0-33.22,23-59.57,46.91-59.57,10.15,0,17.6,5.57,22.14,14h.68Zm-14,68.79,9-43.38c-6.38-11.16-13.29-15.58-21.39-15.58-20.48,0-39.27,25.7-39.27,51.69,0,17.46,7.45,26,19.29,26,11.2,0,22.18-6.74,32.41-18.73Z"/><path class="cls-9" d="M1163,1086.94c9.85-5.67,15.16-13.93,15.16-21.6l-.79-9.69,4.75,7.78a6.26,6.26,0,0,1-4.72,2.27c-3.74,0-6.62-2.09-6.62-6.12s2.92-7.49,6.88-7.49c4.14,0,7.3,3.31,7.3,9.07,0,13.68-8.06,24.23-19.58,30.24Zm24.09,0c9.84-5.67,15.15-13.93,15.15-21.6l-.79-9.69,4.75,7.78a6.23,6.23,0,0,1-4.71,2.27c-3.75,0-6.63-2.09-6.63-6.12s2.92-7.49,6.88-7.49c4.14,0,7.31,3.31,7.31,9.07,0,13.68-8.07,24.23-19.59,30.24Z"/><path class="cls-10" d="M846.26,1341.44a97.13,97.13,0,0,1-38.34-37.52c-22.51-40.35-6.07-82.3-3.61-88.3"/><path class="cls-10" d="M1119,892.49"/><path class="cls-11" d="M2490.63,781.29c0-42.09,15.74-74.12,41.83-107.42L2537,677c-25.53,31.29-39.57,66.13-39.57,105.48,0,17.67,2.78,38.37,8.39,52.59l-5.07,1.73A158.51,158.51,0,0,1,2490.63,781.29Z"/><path class="cls-11" d="M2525.37,800.47c51-43.88,72-60.69,72-84.31,0-11.73-6.91-21.59-21.6-21.59-8.39,0-17.61,4.24-26.32,12.81l-4.28-5.22c10.19-8.71,19.76-14.07,31.28-14.07,18.43,0,28.26,11.62,28.26,26.81,0,26.54-20.92,44-67,83.81h55.94l-1.11,6.62h-67.82Z"/><path class="cls-11" d="M2603.46,827.08c9.89-4.29,16.81-11.88,18-20.85v-11l4.42,9.11c-1.22,1.76-3.78,2.26-5.36,2.26-3.85,0-6.48-2.48-6.48-6.3,0-4.21,3.31-8.64,8.35-8.64,4.48,0,6.88,3.64,6.88,8.75,0,14.47-10.33,27.07-24.3,32.11Z"/><path class="cls-11" d="M2654.68,798.82h25.63l19.41-96.3h-20.23l1-5c9.11-1.19,17.39-3.78,23.15-7.23h6l-21.92,108.57h24.69l-1.11,6.51h-58.07Z"/><path class="cls-11" d="M2721.68,833.62c25.52-31.28,39.56-66.12,39.56-105.47,0-17.68-2.77-38.38-8.39-52.6l5.08-1.72a159.66,159.66,0,0,1,10.15,55.47c0,42.08-15.73,74.12-41.83,107.42Z"/><polygon class="cls-5" points="2631.59 896.72 2532.89 905.56 2583.37 979.76 2631.59 896.72"/></g><line class="cls-12" x1="2083.3" y1="1197.34" x2="2604.94" y2="915.37"/></svg>