<svg xmlns="http://www.w3.org/2000/svg" viewBox="0 0 4128.1 1863.71"><defs><style>.cls-1{fill:#1a1a1a;stroke-width:4px;}.cls-1,.cls-2,.cls-3{stroke:#1a1a1a;stroke-miterlimit:10;}.cls-2{fill:none;}.cls-2,.cls-3{stroke-width:8px;}</style></defs><title>zoom</title><g id="Layer_8" data-name="Layer 8"><text x="-371.7" y="-247.05"/><text x="-371.7" y="-247.05"/><circle class="cls-1" cx="34.93" cy="1074.36" r="32.93"/><circle class="cls-1" cx="1726.92" cy="1073.5" r="32.93"/><line class="cls-2" x1="47.9" y1="1073.01" x2="1046.68" y2="1073.01"/><line class="cls-2" x1="897.03" y1="417.25" x2="897.03" y2="1734.25"/><line class="cls-2" x1="36.03" y1="1075.25" x2="1001.03" y2="337.25"/><line class="cls-2" x1="17.09" y1="1065.48" x2="1023.03" y2="1831.25"/><line class="cls-2" x1="1178.03" y1="1316.25" x2="1178.03" y2="1316.25"/><line class="cls-2" x1="12.03" y1="1188.25" x2="12.03" y2="1193.25"/><line class="cls-2" x1="48.42" y1="1081.78" x2="1030.03" y2="1447.25"/><line class="cls-2" x1="46.78" y1="1072.22" x2="1028.4" y2="706.74"/><polygon class="cls-3" points="963.04 337.36 1034.76 307.12 994.55 369.5 963.04 337.36"/><polygon class="cls-3" points="994.22 691.22 1071.79 684.78 1014.17 731.57 994.22 691.22"/><polygon class="cls-3" points="1026.63 1045.96 1100.53 1070.38 1029.21 1090.9 1026.63 1045.96"/><polygon class="cls-3" points="981.73 1824.76 1053.45 1854.99 1013.24 1792.62 981.73 1824.76"/><polygon class="cls-3" points="1012.91 1470.9 1090.47 1477.33 1032.86 1430.55 1012.91 1470.9"/><line class="cls-2" x1="3199.02" y1="734.25" x2="3197.03" y2="1417.25"/><line class="cls-2" x1="1727.03" y1="1072.25" x2="3357.03" y2="1072.25"/><line class="cls-2" x1="1723.03" y1="1067.25" x2="3371.03" y2="699.25"/><line class="cls-2" x1="1727.03" y1="1071.25" x2="3353.03" y2="864.25"/><polygon class="cls-3" points="3336.72 683.23 3414.51 685.81 3351.87 725.61 3336.72 683.23"/><polygon class="cls-3" points="3331.51 838.95 3406.61 859.4 3336.48 883.69 3331.51 838.95"/><line class="cls-2" x1="1702.29" y1="1076.57" x2="3346.03" y2="1447.25"/><line class="cls-2" x1="1706.29" y1="1072.57" x2="3332.29" y2="1279.57"/><polygon class="cls-3" points="3313.3 1465.39 3390.44 1455.03 3324.13 1421.7 3313.3 1465.39"/><polygon class="cls-3" points="3315.77 1300.88 3390.87 1280.43 3320.74 1256.14 3315.77 1300.88"/><polygon class="cls-3" points="3328.35 1103.03 3400.41 1073.61 3327.85 1058.03 3328.35 1103.03"/><path class="cls-3" d="M783.14,315.65c0-26,18.17-44,36.2-44,7.7,0,12.65,3.22,17,8.18l-3.75,3.83c-4-4.79-7.53-6.94-13.66-6.94-15.12,0-30,17.55-30,38.13,0,14.56,6.13,22.32,18.65,22.32,6.72,0,12.54-3.22,17.33-6.94l2.94,4.14c-4.82,3.67-11.59,7.87-21,7.87C792.43,342.25,783.14,332.61,783.14,315.65Z" transform="translate(-371.7 -247.05)"/><path class="cls-3" d="M870.61,277.79h55.15v4.85H870.61Zm0,28.31h55.15v4.84H870.61Z" transform="translate(-371.7 -247.05)"/><path class="cls-3" d="M960.4,335.5h19.94l15.09-74.9H979.69l.79-3.92c7.08-.92,13.52-2.94,18-5.63h4.68L986.1,335.5h19.21l-.87,5.07H959.28Z" transform="translate(-371.7 -247.05)"/><path class="cls-3" d="M2772.72,315.65c0-26,18.18-44,36.21-44,7.7,0,12.65,3.22,17,8.18l-3.75,3.83c-4-4.79-7.53-6.94-13.66-6.94-15.12,0-30,17.55-30,38.13,0,14.56,6.13,22.32,18.65,22.32,6.72,0,12.54-3.22,17.33-6.94l2.94,4.14c-4.82,3.67-11.59,7.87-21,7.87C2782,342.25,2772.72,332.61,2772.72,315.65Z" transform="translate(-371.7 -247.05)"/><path class="cls-3" d="M2860.2,277.79h55.15v4.85H2860.2Zm0,28.31h55.15v4.84H2860.2Z" transform="translate(-371.7 -247.05)"/><path class="cls-3" d="M2944.25,327.52l4.17-3.16c3.75,5.93,9.1,12.82,21.31,12.82,13.58,0,25.82-11.34,25.82-28.11,0-13.3-7.45-19.71-18.46-19.71-6.47,0-10.44,1.81-16.1,4.92l-3.08-2.43,11.18-40.8h38.52l-1.12,5.15h-33.32l-8.71,31.64a28.63,28.63,0,0,1,13.58-3.41c13.44,0,23.3,7.87,23.3,23.52,0,20.86-15.18,34.3-32.4,34.3C2956,342.25,2948.39,334.52,2944.25,327.52Z" transform="translate(-371.7 -247.05)"/><text x="-371.7" y="-247.05"/></g></svg>